<svg width="24" height="24" viewBox="0 0 24 24" fill="none" xmlns="http://www.w3.org/2000/svg">
<path d="M15.001 18C15.001 19.6569 13.6578 21 12.001 21C10.3441 21 9.00098 19.6569 9.00098 18" stroke="#FFCF5D" stroke-width="2" stroke-linecap="round" stroke-linejoin="round"/>
<path d="M4 17H9H15H20L18.5951 15.5951C18.2141 15.2141 18 14.6973 18 14.1585V11C18 8.38757 16.3304 6.16509 14 5.34142V5C14 3.89543 13.1046 3 12 3C10.8954 3 10 3.89543 10 5V5.34142C7.66962 6.16509 6 8.38757 6 11V14.1585C6 14.6973 5.78595 15.2141 5.40493 15.5951L4 17Z" fill="#FFF7E4" stroke="#D99800" stroke-width="2" stroke-linecap="round" stroke-linejoin="round"/>
</svg>
