<svg xmlns="http://www.w3.org/2000/svg" width="24" height="24" fill="none"><path fill="#FFF7E4" d="M17 13H7L5.4 5H21zM19 19a2 2 0 1 1-4 0 2 2 0 0 1 4 0"></path><path stroke-linecap="round" stroke-linejoin="round" stroke-width="2" d="M3 3h2l.4 2M7 13h10l4-8H5.4M7 13 5.4 5M7 13l-2.293 2.293c-.63.63-.184 1.707.707 1.707H17m0 0a2 2 0 1 0 0 4 2 2 0 0 0 0-4" stroke="#ECA600"></path><path stroke="#FFCF5D" stroke-linecap="round" stroke-linejoin="round" stroke-width="2" d="M19 19a2 2 0 1 1-4 0 2 2 0 0 1 4 0"></path><path fill="#FFF7E4" stroke="#FFCF5D" stroke-linecap="round" stroke-linejoin="round" stroke-width="2" d="M9 19a2 2 0 1 1-4 0 2 2 0 0 1 4 0"></path></svg>