<svg width="18" height="20" viewBox="0 0 18 20" fill="none" xmlns="http://www.w3.org/2000/svg">
<path d="M1 11C1 9.89543 1.89543 9 3 9H15C16.1046 9 17 9.89543 17 11V17C17 18.1046 16.1046 19 15 19H3C1.89543 19 1 18.1046 1 17V11Z" fill="#FFF7E4"/>
<path d="M5 5C5 2.79086 6.79086 1 9 1C11.2091 1 13 2.79086 13 5V9H5V5Z" fill="#FFF7E4"/>
<path d="M1 11C1 9.89543 1.89543 9 3 9H15C16.1046 9 17 9.89543 17 11V17C17 18.1046 16.1046 19 15 19H3C1.89543 19 1 18.1046 1 17V11Z" stroke="#D99800" stroke-width="2" stroke-linecap="round"/>
<path d="M5 5C5 2.79086 6.79086 1 9 1C11.2091 1 13 2.79086 13 5V9H5V5Z" stroke="#D99800" stroke-width="2" stroke-linecap="round"/>
<path d="M9 13V15" stroke="#FFC232" stroke-width="2" stroke-linecap="round"/>
</svg>
