<svg xmlns="http://www.w3.org/2000/svg" width="24px" height="24px" fill="red" viewBox="0 0 20 16"><path fill="#FFF7E4" d="M7 13a2 2 0 1 1-4 0 2 2 0 0 1 4 0M17 13a2 2 0 1 1-4 0 2 2 0 0 1 4 0"></path><path d="M10 1H2a1 1 0 0 0-1 1v10a1 1 0 0 0 1 1h1a2 2 0 1 1 4 0h3a1 1 0 0 0 1-1V2a1 1 0 0 0-1-1M14.586 3H12a1 1 0 0 0-1 .998V12a1 1 0 0 0 1 1h1a2 2 0 1 1 4 0h1a1 1 0 0 0 1-1V7.414a1 1 0 0 0-.293-.707l-3.414-3.414A1 1 0 0 0 14.586 3"></path><path stroke="#D99800" stroke-width="2" d="M11 12a1 1 0 0 1-1 1H7m4-1V3.998M11 12a1 1 0 0 0 1 1h1m-2-1V3.998M3 13H2a1 1 0 0 1-1-1V2a1 1 0 0 1 1-1h8a1 1 0 0 1 1 1v1.998M3 13a2 2 0 1 0 4 0m-4 0a2 2 0 1 1 4 0m6 0a2 2 0 1 0 4 0m-4 0a2 2 0 1 1 4 0m0 0h1a1 1 0 0 0 1-1V7.414a1 1 0 0 0-.293-.707l-3.414-3.414A1 1 0 0 0 14.586 3H12a1 1 0 0 0-1 .998"></path><path stroke="#FFC232" stroke-width="2" d="M17 13a2 2 0 1 1-4 0 2 2 0 0 1 4 0ZM7 13a2 2 0 1 1-4 0 2 2 0 0 1 4 0Z"></path></svg>