<svg width="20" height="20" viewBox="0 0 20 20" fill="none" xmlns="http://www.w3.org/2000/svg">
<path d="M19 10C19 14.9706 14.9706 19 10 19C5.02944 19 1 14.9706 1 10C1 5.02944 5.02944 1 10 1C14.9706 1 19 5.02944 19 10Z" fill="#FFF7E4"/>
<path d="M12.8284 12.8284C11.2663 14.3905 8.73367 14.3905 7.17157 12.8284M7 8H7.01M13 8H13.01M19 10C19 14.9706 14.9706 19 10 19C5.02944 19 1 14.9706 1 10C1 5.02944 5.02944 1 10 1C14.9706 1 19 5.02944 19 10Z" stroke="#D99800" stroke-width="2" stroke-linecap="round" stroke-linejoin="round"/>
<path d="M12.8284 12.8284C11.2663 14.3905 8.73368 14.3905 7.17158 12.8284M7.00001 8H7.01001M13 8H13.01" stroke="#FFC232" stroke-width="2" stroke-linecap="round" stroke-linejoin="round"/>
</svg>
