<svg xmlns="http://www.w3.org/2000/svg" width="24px" height="24px" fill="red" viewBox="0 0 20 20"><path stroke="#D99800" stroke-linecap="round" stroke-linejoin="round" stroke-width="2" d="M19 10a9 9 0 1 1-18 0 9 9 0 0 1 18 0"></path><path stroke="#FFC232" stroke-linecap="round" stroke-linejoin="round" stroke-width="2" d="M13 18.488V16a2 2 0 0 1 2-2h3.064M1.055 9H3a2 2 0 0 1 2 2v1a2 2 0 0 0 2 2 2 2 0 0 1 2 2v2.945M6 1.936V3.5A2.5 2.5 0 0 0 8.5 6H9a2 2 0 0 1 2 2 2 2 0 1 0 4 0 2 2 0 0 1 2-2h1.064"></path><path fill="none" stroke="#D99800" stroke-linecap="round" stroke-linejoin="round" stroke-width="2" d="M19 10a9 9 0 1 1-18 0 9 9 0 0 1 18 0"></path></svg>