<svg width="18" height="18" viewBox="0 0 18 18" fill="none" xmlns="http://www.w3.org/2000/svg">
<path d="M6.75 3.75H5.25C4.42157 3.75 3.75 4.42157 3.75 5.25V14.25C3.75 15.0784 4.42157 15.75 5.25 15.75H12.75C13.5784 15.75 14.25 15.0784 14.25 14.25V5.25C14.25 4.42157 13.5784 3.75 12.75 3.75H11.25M6.75 3.75C6.75 4.57843 7.42157 5.25 8.25 5.25H9.75C10.5784 5.25 11.25 4.57843 11.25 3.75M6.75 3.75C6.75 2.92157 7.42157 2.25 8.25 2.25H9.75C10.5784 2.25 11.25 2.92157 11.25 3.75M9 9H11.25M9 12H11.25M6.75 9H6.7575M6.75 12H6.7575" stroke="#111827" stroke-linecap="round"/>
</svg>
