<svg width="400" height="153" viewBox="0 0 400 153" fill="none" xmlns="http://www.w3.org/2000/svg">
<path d="M235.533 100.352L188.87 19.2551L222.393 0L280.418 100.352H235.533Z" fill="black"/>
<path d="M111.243 88.9897L144.766 69.6045L162.503 100.352H117.748L111.243 88.9897Z" fill="black"/>
<path d="M177.03 152.089H186.571V113.492H177.03V152.089Z" fill="black"/>
<path d="M296.594 153C285.925 153 279.507 147.492 279.16 139.73H289.221C289.221 142.158 290.739 145.714 297.244 145.844C301.581 145.844 303.619 143.286 303.619 141.377C303.359 138.342 299.543 138.082 295.466 137.431C291.39 136.781 287.92 136.043 285.405 134.742C282.196 133.094 280.027 129.538 280.027 125.462C280.027 118.566 286.012 113.102 295.987 113.102C305.658 113.102 311.772 118.176 312.423 125.722H302.709C302.622 123.684 302.232 120.474 296.507 120.474C292.647 120.474 290.089 121.255 289.872 123.944C289.872 127.89 297.895 127.63 304.14 129.278C310.124 130.796 313.941 134.525 313.941 139.73C313.941 149.314 306.178 153 296.594 153Z" fill="black"/>
<path d="M150.533 54.5562L184.056 35.2144L221.656 100.352H186.571V109.893H177.031V100.309L150.533 54.5562Z" fill="black"/>
<path d="M151.401 152.999C140.299 152.999 131.278 143.936 131.278 132.964C131.278 121.862 140.299 113.102 151.401 113.102C155.607 113.102 159.424 114.229 162.763 116.528V100.352H172.304V152.089H162.763V149.53C159.424 151.698 155.607 152.999 151.401 152.999ZM140.429 132.964C140.429 138.948 145.546 143.936 151.661 143.936C157.646 143.936 162.763 138.948 162.763 132.964C162.763 126.979 157.646 121.862 151.661 121.862C145.546 121.862 140.429 126.979 140.429 132.964Z" fill="black"/>
<path d="M221.915 100.352H231.326V152.089H221.915V149.53C218.706 151.698 214.76 152.999 210.423 152.999C199.451 152.999 190.431 143.936 190.431 132.964C190.431 121.862 199.451 113.102 210.423 113.102C214.76 113.102 218.576 114.229 221.915 116.528V100.352ZM199.711 132.964C199.711 138.948 204.829 143.936 210.683 143.936C216.798 143.936 221.915 138.948 221.915 132.964C221.915 126.979 216.798 121.862 210.683 121.862C204.829 121.862 199.711 126.979 199.711 132.964Z" fill="black"/>
<path d="M254.528 153C243.599 153 234.536 143.936 234.536 132.964C234.536 121.862 243.599 113.102 254.528 113.102C258.735 113.102 262.681 114.23 265.89 116.528V113.449H275.431V152.089H265.89V149.531C262.681 151.699 258.865 153 254.528 153ZM243.816 132.964C243.816 138.949 248.934 143.936 254.918 143.936C260.903 143.936 265.89 138.949 265.89 132.964C265.89 126.98 260.903 121.862 254.918 121.862C248.934 121.862 243.816 126.98 243.816 132.964Z" fill="black"/>
<path d="M96.1939 132.964C96.1939 138.949 101.311 143.936 107.296 143.936C113.411 143.936 118.528 138.949 118.528 132.964C118.528 126.98 113.411 121.862 107.296 121.862C101.311 121.862 96.1939 126.98 96.1939 132.964ZM107.036 153C96.0638 153 87 143.936 87 132.964C87 121.862 96.0638 113.102 107.036 113.102C111.242 113.102 115.189 114.23 118.528 116.528V113.449H127.939V152.089H118.528V149.531C115.319 151.699 111.372 153 107.036 153Z" fill="black"/>
</svg>
