<svg width="354" height="116" viewBox="0 0 354 116" fill="none" xmlns="http://www.w3.org/2000/svg">
<path d="M24.1123 97.6309H26.5941V105.077H36.1083V97.6309H38.5076V115.004H36.1083V107.062H26.5941V115.004H24.1123V97.6309Z" fill="#231F20"/>
<path d="M76.9775 108.717C76.9775 113.102 74.3299 115.418 69.7797 115.418C65.1468 115.418 62.334 113.35 62.334 108.717V97.6309H64.8158V108.717C64.8158 111.778 66.6359 113.515 69.7797 113.515C72.8408 113.515 74.5782 111.778 74.5782 108.717V97.6309H76.9775V108.717Z" fill="#231F20"/>
<path d="M107.009 115.501C101.549 115.832 98.2393 111.199 98.2393 106.649C98.2393 101.602 101.135 97.2173 106.926 97.2173C110.897 97.2173 114.041 98.8719 114.703 103.008H112.304C111.807 100.361 109.573 99.1201 106.926 99.1201C102.458 99.1201 100.638 102.843 100.638 106.566C100.638 110.206 102.955 113.681 107.34 113.598C109.573 113.515 111.393 113.102 112.304 111.613C112.965 110.702 112.8 109.048 112.717 107.807H106.926V105.821H114.868C114.868 105.821 114.868 110.372 114.868 112.357C112.8 114.922 110.318 115.335 107.009 115.501Z" fill="#231F20"/>
<path d="M144.569 113.515C148.953 113.515 150.856 109.792 150.856 106.318C150.856 102.843 148.953 99.1201 144.569 99.1201C140.101 99.1201 138.281 102.843 138.281 106.318C138.281 109.792 140.101 113.515 144.569 113.515ZM144.569 97.2173C150.36 97.2173 153.255 101.602 153.255 106.318C153.255 111.033 150.36 115.418 144.569 115.418C138.777 115.418 135.882 111.033 135.882 106.318C135.882 101.602 138.777 97.2173 144.569 97.2173Z" fill="#231F20"/>
<path d="M201.984 105.077H206.782C209.513 105.077 210.671 104.167 210.671 102.347C210.671 99.9473 208.934 99.5337 206.782 99.5337H201.984V105.077ZM201.984 113.102H208.023C210.092 113.102 211.415 111.861 211.415 109.958C211.415 107.724 209.513 107.062 207.444 107.062H201.984V113.102ZM199.585 97.6309H206.121C207.775 97.6309 209.844 97.6309 210.919 98.21C212.16 98.9545 213.07 100.196 213.07 101.85C213.07 103.753 212.077 105.159 210.423 105.821C212.656 106.235 213.898 107.889 213.898 110.041C213.898 112.605 211.912 115.004 208.354 115.004H199.585V97.6309Z" fill="#231F20"/>
<path d="M244.26 113.515C248.727 113.515 250.548 109.792 250.548 106.318C250.548 102.843 248.727 99.1201 244.26 99.1201C239.875 99.1201 237.972 102.843 237.972 106.318C237.972 109.792 239.875 113.515 244.26 113.515ZM244.26 97.2173C250.051 97.2173 253.029 101.602 253.029 106.318C253.029 111.033 250.051 115.418 244.26 115.418C238.469 115.418 235.573 111.033 235.573 106.318C235.573 101.602 238.469 97.2173 244.26 97.2173Z" fill="#231F20"/>
<path d="M286.37 102.76C286.122 100.196 284.384 99.1201 281.903 99.1201C279.834 99.1201 277.849 99.8647 277.849 102.098C277.849 104.249 280.744 104.58 283.64 105.242C286.536 105.821 289.431 106.814 289.431 110.289C289.431 113.929 285.625 115.418 282.316 115.418C278.262 115.418 274.87 113.515 274.87 109.296H277.104C277.104 112.192 279.669 113.515 282.399 113.515C284.633 113.515 287.032 112.854 287.032 110.289C287.032 107.89 284.136 107.559 281.241 106.897C278.345 106.318 275.367 105.49 275.367 102.264C275.367 98.7892 278.676 97.2173 281.985 97.2173C285.708 97.2173 288.521 98.8719 288.686 102.76H286.37Z" fill="#231F20"/>
<path d="M325.585 102.76C325.254 100.196 323.517 99.1201 321.034 99.1201C319.049 99.1201 316.981 99.8647 316.981 102.098C316.981 104.249 319.876 104.58 322.855 105.242C325.75 105.821 328.646 106.814 328.646 110.289C328.646 113.929 324.84 115.418 321.531 115.418C317.477 115.418 314.002 113.515 314.002 109.296H316.319C316.319 112.192 318.884 113.515 321.614 113.515C323.765 113.515 326.247 112.854 326.247 110.289C326.247 107.89 323.268 107.559 320.373 106.897C317.477 106.318 314.581 105.49 314.581 102.264C314.581 98.7892 317.808 97.2173 321.2 97.2173C324.84 97.2173 327.736 98.8719 327.819 102.76H325.585Z" fill="#231F20"/>
<path d="M45.4568 5.79937V37.0717H56.7911C56.7911 37.0717 57.7837 36.989 58.363 36.8235C64.9813 36.2444 69.2008 28.3022 69.6142 22.511C70.2762 16.3062 66.4704 6.04755 56.9566 5.79937C54.1435 5.71662 45.4568 5.79937 45.4568 5.79937ZM45.4568 40.7119V78.1891H55.7154C55.7154 78.1891 61.5068 78.6028 66.7187 74.3835C71.8481 70.2469 74.4954 64.1248 73.9164 57.0927C73.5027 50.8051 68.7043 41.8701 57.9492 40.7119C52.2409 40.7119 45.4568 40.7119 45.4568 40.7119ZM69.6142 2.15918C78.1357 2.65557 83.6785 7.20579 84.175 7.7849C88.5597 11.8387 89.8834 17.9608 88.808 23.8348C87.4016 33.6798 75.1574 37.8163 75.1574 37.8163C85.4159 39.0573 93.1099 46.7513 94.2681 55.0244C95.261 63.1321 92.2827 70.3297 85.5814 75.3762C78.7974 80.4228 68.8698 82.0775 63.4921 82.0775C63.4921 82.0775 21.9611 82.0775 19.6447 82.0775C19.6447 80.7538 19.6447 79.761 19.6447 78.6028C25.2704 78.6855 25.9323 78.6855 25.9323 76.4518C25.8496 68.0132 25.9323 9.10859 25.9323 7.53672C25.9323 5.71661 25.0221 5.6339 19.6447 5.6339C19.562 4.22747 19.7275 2.15918 19.7275 2.15918H69.6142Z" fill="#231F20"/>
<path d="M137.288 6.46162C131.828 10.1018 128.023 18.4577 126.203 25.4071C123.307 35.9139 123.886 48.3236 126.782 61.0642C129.76 73.8048 137.95 78.2723 142.832 79.3478C151.932 81.416 157.889 76.1212 161.115 71.2401C167.403 61.726 168.975 42.1188 166.989 30.8673C165.169 20.4432 162.356 13.1629 156.896 8.28173C150.774 2.9042 142.004 3.31785 137.288 6.46162ZM186.348 55.9349C182.542 67.269 174.931 74.3839 166.162 79.0169C154.662 85.2217 138.199 86.2145 126.699 79.3478C119.584 75.1285 101.466 63.8771 103.865 37.3203C104.362 31.6119 107.257 17.2994 123.224 6.54438C134.145 -0.570506 149.864 -2.63878 164.507 4.14517C187.341 14.5693 192.139 40.2987 186.348 55.9349Z" fill="#231F20"/>
<path d="M253.443 5.88237C253.526 11.839 253.443 24.166 253.443 24.166L250.547 24.2487C248.81 16.5547 245.087 9.9362 238.717 6.87515C232.595 3.89682 223.329 2.40768 217.289 7.70245C213.732 10.8462 213.235 14.0728 214.476 17.7129C216.627 23.0905 222.584 24.7451 227.217 26.8133C231.023 28.3025 239.13 30.9499 239.13 30.9499C248.148 34.0937 258.158 40.2158 260.889 50.3917C262.129 54.7765 262.129 59.7404 261.137 64.2078C258.903 74.1356 252.533 76.5348 248.893 79.0167C247.072 80.2576 230.03 86.7934 209.513 80.0922C205.293 78.6858 200.412 77.0311 200.412 77.0311V54.7765C200.412 54.7765 202.646 54.8592 203.556 54.8592C204.962 58.4166 206.203 62.7187 209.182 67.0207C216.131 77.1139 225.976 80.1749 236.814 77.8585C241.116 76.8657 245.832 73.8874 247.072 69.4199C248.644 64.3733 248.148 56.0175 232.925 50.3917C221.922 45.3451 208.106 43.2769 201.57 31.0326C199.006 24.166 199.75 12.2527 208.189 6.46147C216.71 0.6703 224.983 -0.653385 234.994 0.670302C244.922 2.07673 247.569 3.40043 253.443 5.88237Z" fill="#231F20"/>
<path d="M325.915 5.88237C325.998 11.839 325.915 24.166 325.915 24.166L323.02 24.2487C321.282 16.5547 317.56 9.9362 311.189 6.87515C305.067 3.89682 295.801 2.40768 289.762 7.70245C286.205 10.8462 285.708 14.0728 286.949 17.7129C289.1 23.0905 295.057 24.7451 299.69 26.8133C303.495 28.3025 311.603 30.9499 311.603 30.9499C320.621 34.0937 330.631 40.2158 333.361 50.3917C334.602 54.7765 334.602 59.7404 333.609 64.2078C331.376 74.1356 325.005 76.5348 321.365 79.0167C319.545 80.2576 302.502 86.7934 281.985 80.0922C277.766 78.6858 272.885 77.0311 272.885 77.0311V54.7765C272.885 54.7765 275.119 54.8592 276.028 54.8592C277.435 58.4166 278.676 62.7187 281.654 67.0207C288.604 77.1139 298.449 80.1749 309.287 77.8585C313.589 76.8657 318.304 73.8874 319.545 69.4199C321.117 64.3733 320.621 56.0175 305.398 50.3917C294.395 45.3451 280.579 43.2769 274.043 31.0326C271.478 24.166 272.223 12.2527 280.744 6.46147C289.183 0.6703 297.456 -0.653385 307.384 0.670302C317.394 2.07673 320.042 3.40043 325.915 5.88237Z" fill="#231F20"/>
</svg>
