<svg width="368" height="142" viewBox="0 0 368 142" fill="none" xmlns="http://www.w3.org/2000/svg">
<path fill-rule="evenodd" clip-rule="evenodd" d="M94.3942 86.6148C92.2407 86.6148 90.5546 88.1214 90.5546 90.3197C90.5546 92.5195 92.2494 94.0174 94.3942 94.0174C96.5375 94.0174 98.2337 92.5094 98.2337 90.3197C98.2337 88.1214 96.5462 86.6148 94.3942 86.6148ZM94.3942 92.958C92.8587 92.958 91.7197 91.8364 91.7197 90.3197C91.7197 88.8045 92.85 87.6742 94.3942 87.6742C95.9196 87.6742 97.0672 88.8218 97.0672 90.3197C97.0672 91.8089 95.9094 92.958 94.3942 92.958ZM131.755 73.6562H113.064L115.188 41.1685L103.05 73.6562H85.6934L113.233 0.224609H131.701L129.569 33.158L141.938 0.224609H159.296L131.755 73.6562ZM134.01 73.6562L161.548 0.224609H178.904L151.366 73.6562H134.01Z" fill="black"/>
<path fill-rule="evenodd" clip-rule="evenodd" d="M83.6916 48.3449C59.4372 76.8281 36.5578 114.727 56.7671 132.179C76.3497 149.092 100.827 139.078 117.516 132.402C134.206 125.726 318.676 45.6183 318.676 45.6183C320.456 44.7282 320.123 43.6153 317.897 44.1711C317 44.3954 117.072 98.5772 117.072 98.5772C91.702 105.699 62.7746 90.1774 83.6916 48.3449Z" fill="black"/>
<path fill-rule="evenodd" clip-rule="evenodd" d="M95.0481 90.5799C95.5865 90.5539 96.0076 90.276 96.0076 89.5307C96.0076 88.5697 95.3795 88.328 94.3303 88.328H92.8223V92.3123H93.8281V90.6161H93.9974L94.9135 92.3123H96.0699L95.0481 90.5799ZM94.4027 89.9345H93.8295V89.0097H94.3129C94.6096 89.0097 94.9497 89.0444 94.9497 89.4308C94.9497 89.8447 94.7529 89.9345 94.4027 89.9345ZM268.87 0C266.717 0 265.031 1.50802 265.031 3.70493C265.031 5.90329 266.727 7.40119 268.87 7.40119C271.014 7.40119 272.71 5.89316 272.71 3.70493C272.711 1.50802 271.025 0 268.87 0ZM268.87 6.3447C267.335 6.3447 266.196 5.2231 266.196 3.70639C266.196 2.19112 267.326 1.06082 268.87 1.06082C270.396 1.06082 271.545 2.20849 271.545 3.70639C271.545 5.1956 270.387 6.3447 268.87 6.3447Z" fill="black"/>
<path fill-rule="evenodd" clip-rule="evenodd" d="M269.526 3.96573C270.064 3.93968 270.487 3.66181 270.487 2.91648C270.487 1.95551 269.857 1.71382 268.809 1.71382H267.301V5.69663H268.306V4.00191H268.476L269.391 5.69663H270.549L269.526 3.96573ZM268.879 3.32026H268.306V2.39547H268.79C269.086 2.39547 269.427 2.43165 269.427 2.81807C269.427 3.23053 269.229 3.32026 268.879 3.32026ZM257.434 12.4639L262.098 0.224609H209.138L190.953 22.2545L199.349 0.224609H181.769L154.451 73.6562H171.808L183.471 42.9486L184.27 73.6562L237.527 73.5404L242.597 59.4153H222.349L229.001 41.6143H245.69L250.824 27.9291H234.136L239.857 12.4639H257.434ZM201.489 68.7602L200.376 30.4879L226.619 1.67474L201.489 68.7602Z" fill="black"/>
</svg>
