<svg width="390" height="145" viewBox="0 0 390 145" fill="none" xmlns="http://www.w3.org/2000/svg">
<path d="M206.331 0.490302C205.382 0.636288 204.47 4.13069 202.636 5.95089C201.295 7.26469 199.621 7.18258 198.731 8.80664C198.394 9.41336 198.503 10.4489 198.12 11.4434C197.372 13.4324 194.735 13.6103 194.735 15.7772C194.726 18.1174 196.934 18.5645 198.845 20.225C200.337 21.5617 200.483 22.4832 202.29 23.1309C203.831 23.6556 206.126 21.9403 208.193 22.5562C209.89 23.0625 211.514 23.4275 211.897 25.1701C212.234 26.7759 211.874 29.2667 209.817 28.9793C209.123 28.9017 206.117 27.889 202.422 28.2813C197.965 28.7877 192.878 30.2429 192.381 35.2108C192.107 37.989 195.542 41.2645 198.859 40.5984C201.154 40.1468 200.068 37.4416 201.318 36.1278C202.956 34.4444 212.234 42.0035 220.861 42.0035C224.492 42.0035 227.193 41.0865 229.875 38.2764C230.126 38.062 230.432 37.6013 230.82 37.5739C231.184 37.6013 231.823 37.9617 232.033 38.1168C238.981 43.7005 244.232 54.9 269.764 55.0323C273.355 55.0505 277.447 56.7658 280.786 59.8131C283.765 62.5685 285.507 66.8521 287.2 71.1996C289.755 77.7231 294.335 84.0687 301.278 91.1305C301.657 91.5091 307.373 95.9524 307.829 96.2854C307.902 96.331 308.321 97.3346 308.175 97.8957C308.007 102.129 307.391 114.442 316.569 114.998C318.814 115.112 318.225 113.534 318.225 112.448C318.221 110.304 317.828 108.174 318.96 105.979C320.506 102.959 315.68 101.568 315.821 95.04C315.922 90.1725 311.834 91.0027 309.758 87.2939C308.563 85.1453 307.5 84.0048 307.578 81.3771C308.043 66.5875 304.43 56.8707 302.628 54.4848C301.223 52.6829 300.06 51.9666 301.346 51.1318C309.006 46.0727 310.744 41.3648 310.744 41.3648C314.818 31.7894 318.481 23.0443 323.531 19.1941C324.548 18.4003 327.157 16.4524 328.759 15.686C333.471 13.4643 335.953 12.1186 337.321 10.7865C339.488 8.67434 341.199 4.27212 339.123 1.60341C336.541 -1.6903 332.075 0.923661 330.104 2.09152C316.022 10.4489 313.946 25.1929 309.07 33.6598C305.178 40.4251 298.851 45.393 293.194 45.799C288.952 46.1138 284.381 45.2561 279.828 43.258C268.756 38.4041 262.698 32.1361 261.27 31.0276C258.296 28.7329 235.204 6.06494 216.495 5.13888C216.495 5.13888 214.173 0.4903 213.589 0.412747C212.221 0.239387 210.82 3.19094 209.817 3.53306C208.872 3.84784 207.285 0.335194 206.331 0.490302Z" fill="black"/>
<path d="M123.971 135.782C122.21 135.741 120.714 134.295 120.714 132.507L120.718 74.1509H101.485V138.478C101.485 141.63 104.04 144.203 107.174 144.203H140.791C143.947 144.203 146.47 141.63 146.47 138.478V74.1509H127.255L127.237 132.507C127.237 134.295 125.741 135.741 123.971 135.782Z" fill="black"/>
<path d="M188.366 74.1509H159.257C155.813 74.1509 153.007 76.9519 153.007 80.4326V144.203H172.258V85.7061C172.272 83.9133 173.723 82.4946 175.511 82.4946C177.308 82.4946 178.75 83.8814 178.791 85.656V144.203H197.965V85.656C197.987 83.8814 199.429 82.4946 201.222 82.4946C203.001 82.4946 204.47 83.9133 204.483 85.7061V144.203H223.735V80.4326C223.735 76.9519 220.924 74.1509 217.48 74.1509H188.366Z" fill="black"/>
<path d="M75.7473 85.8293C75.761 83.8814 74.1734 82.4946 72.4901 82.4946H69.2238V117.927H72.4901C74.1871 117.927 75.761 116.576 75.7473 114.638V85.8293ZM88.6529 126.599H69.2238V144.203H50V74.1509H88.776C92.2476 74.1509 94.9574 76.9701 94.9574 80.46V120.29C94.9574 123.784 92.1427 126.599 88.6529 126.599Z" fill="black"/>
<path d="M289.704 128.538C285.841 128.538 282.597 131.877 282.597 135.923C282.597 139.984 285.841 143.295 289.828 143.295C293.783 143.295 296.985 139.984 296.985 135.923C296.985 131.868 293.783 128.538 289.828 128.538H289.704ZM298.363 135.901C298.363 140.659 294.549 144.527 289.828 144.527C285.056 144.527 281.224 140.686 281.224 135.901C281.224 131.206 285.056 127.283 289.686 127.283C294.549 127.283 298.363 131.088 298.363 135.901Z" fill="black"/>
<path d="M288.938 135.354C290.274 135.354 290.977 134.879 290.977 133.93C290.977 133.086 290.297 132.653 288.997 132.653H288.614V135.354H288.938ZM293.86 140.892H291.565L288.614 136.964V140.892H286.739V130.96H288.71C291.388 130.96 292.811 131.973 292.811 133.907C292.811 135.198 291.971 136.343 290.799 136.686L290.662 136.736L293.86 140.892Z" fill="black"/>
<path d="M256.01 117.94V85.6833C255.965 83.8996 254.528 82.5311 252.735 82.5311C250.96 82.5311 249.491 83.9544 249.478 85.7335V117.94H256.01ZM256.01 144.203V126.617H249.478V144.203H230.263V80.4326C230.263 76.9519 233.069 74.1509 236.513 74.1509H268.975C272.429 74.1509 275.234 76.9519 275.234 80.4326V144.203H256.01Z" fill="black"/>
</svg>
