<svg width="363" height="113" viewBox="0 0 363 113" fill="none" xmlns="http://www.w3.org/2000/svg">
<path d="M67.4726 62.4028V61.4371H72.6628L72.4214 3.13799H67.2312V2.17238L92.0355 2.05168C105.735 1.99133 113.219 8.5696 113.279 17.743C113.339 26.856 106.399 32.6497 92.2769 32.71L81.8965 32.7704L82.0172 61.3768H89.9836V62.3424L67.4726 62.4028ZM81.8965 31.8651L90.0439 31.8048C99.3983 31.7444 103.502 27.9423 103.442 17.5016C103.381 9.29381 99.7001 3.0173 90.7078 3.07765L81.8362 3.13799L81.8965 31.8651Z" fill="#002E53"/>
<path d="M149.731 0.482643C162.767 0.422292 174.656 12.7339 174.716 31.8652C174.777 50.9965 163.008 63.4288 149.972 63.4892C136.937 63.5495 125.047 51.2379 124.987 32.0463C124.927 12.915 136.756 0.542994 149.731 0.482643ZM149.972 62.5235C159.568 62.4632 164.095 54.7383 164.034 31.9256C163.974 9.11285 159.327 1.38791 149.731 1.44826C140.135 1.50861 135.609 9.23354 135.669 32.0463C135.79 54.859 140.377 62.5839 149.972 62.5235Z" fill="#002E53"/>
<path d="M202.9 60.955L215.695 60.8947C221.368 60.8947 223.058 58.8427 228.127 37.5991H230.058L230.119 61.7999L188.416 61.981V61.0153H193.606L193.365 2.7162H188.175V1.75059L211.35 1.62988V2.5955L202.719 2.65586L202.9 60.955Z" fill="#002E53"/>
<path d="M269.347 0.000220877C282.383 -0.0601302 294.272 12.2515 294.332 31.3828C294.393 50.5141 282.624 62.9464 269.588 63.0068C256.553 63.0671 244.663 50.7555 244.603 31.6242C244.543 12.4929 256.251 0.060572 269.347 0.000220877ZM269.528 62.1015C279.124 62.0411 283.65 54.3162 283.59 31.5035C283.529 8.69078 278.882 0.965836 269.287 1.02619C259.691 1.08654 255.164 8.81148 255.225 31.6242C255.345 54.3765 259.993 62.1015 269.528 62.1015Z" fill="#002E53"/>
<path d="M6.45757 87.5692H9.95793C14.1825 87.5692 15.5706 90.3454 15.5706 92.8801C15.5706 96.5615 13.3376 98.6738 8.75091 98.6738H6.45757V87.5692ZM9.47512 112.313V111.529H6.51792L6.45757 99.3377H6.63862L16.4758 112.313H22.5713V111.529H20.7004L11.5271 99.3377C17.0794 98.9756 19.9762 96.5012 19.9762 92.9405C19.9762 89.7419 17.6829 86.7847 11.2253 86.7847H0V87.5692H2.29334L2.41404 111.468H0.120703V112.253L9.47512 112.313Z" fill="#002E53"/>
<path d="M40.8578 90.2852H40.9182L44.5996 101.088H36.9954L40.8578 90.2852ZM37.1764 112.193V111.408H33.495L36.8143 101.933L44.9617 101.873L48.1603 111.287H45.3238V112.072H53.8937V111.227H52.3849L43.815 86.2417H41.3406L32.5294 111.287H30.2964V112.072L37.1764 112.193Z" fill="#002E53"/>
<path d="M70.3693 111.228H76.0423C78.577 111.228 79.3012 110.745 81.5946 101.752H82.4395L82.4999 112.012L63.9117 112.072V111.288H66.2051L66.0844 87.3889H63.791V86.6043L74.111 86.5439V87.3889H70.2486L70.3693 111.228Z" fill="#002E53"/>
<path d="M101.028 87.2074H105.011C108.994 87.2074 110.684 89.5611 110.684 93.0615C110.684 97.4671 108.874 98.7345 104.709 98.7345H101.088L101.028 87.2074ZM104.649 111.951V111.167H101.088L101.028 99.519H105.675C112.012 99.519 115.029 96.9239 115.029 93.0615C115.029 89.199 111.71 86.4229 105.554 86.4229L94.51 86.4832V87.3281H96.8034L96.8637 111.227H94.5704V112.012L104.649 111.951Z" fill="#002E53"/>
<path d="M131.867 98.9758L131.928 111.046H134.462V111.831L125.47 111.891V111.046H127.763L127.703 87.147H125.349V86.3021H134.402V87.0866H131.867V98.1912L142.067 98.1309L142.006 87.0866H139.472V86.2417H148.524V87.0263H146.17L146.291 110.986H148.585V111.77L139.592 111.831V110.986H142.127L142.067 98.9758H131.867Z" fill="#002E53"/>
<path d="M190.106 110.804H195.779C198.314 110.804 199.038 110.322 201.331 101.329H202.176L202.237 111.589L183.648 111.649V110.865H185.942L185.881 86.9658H183.588V86.1209L193.908 86.0605V86.9055H190.046L190.106 110.804Z" fill="#002E53"/>
<path d="M222.213 89.6216H222.273L225.954 100.424H218.35L222.213 89.6216ZM218.471 111.529V110.744H214.79L218.109 101.269H226.256L229.455 110.684H226.618V111.469H235.188V110.684H233.679L225.11 85.6987H222.635L213.703 110.744H211.47V111.529H218.471Z" fill="#002E53"/>
<path d="M253.897 85.8196V86.6042H251.121L251.181 105.132C251.181 109.598 253.897 111.046 256.311 111.046C259.992 111.046 262.527 108.693 262.527 104.83L262.467 86.5439H259.027V85.7593H265.847V86.5439H263.553L263.614 104.83C263.614 109.115 260.656 111.771 256.19 111.831C249.974 111.831 247.077 109.357 247.077 104.287L247.017 86.6042H244.724V85.7593L253.897 85.8196Z" fill="#002E53"/>
<path d="M283.107 86.5439H286.607C290.832 86.5439 292.22 89.3201 292.22 91.8548C292.22 95.4759 289.987 97.6485 285.4 97.6485H283.107V86.5439ZM286.125 111.228V110.443H283.228L283.167 98.252H283.348L293.186 111.228H299.281V110.443H297.41L288.176 98.252C293.729 97.8899 296.626 95.4155 296.626 91.7945C296.626 88.5959 294.332 85.6387 287.875 85.6387L276.649 85.699V86.4836H278.943L279.063 110.383H276.77V111.167L286.125 111.228Z" fill="#002E53"/>
<path d="M308.213 111.167V110.382H310.506L310.386 86.4834H308.092V85.6385L327.646 85.5781L327.706 93.7859H326.861C324.749 86.9059 324.146 86.423 322.275 86.423H314.671L314.731 97.5276H317.748C319.68 97.5276 320.585 96.381 321.37 92.3978H322.214L322.275 103.382H321.43C320.645 99.4589 319.68 98.3122 317.809 98.3122H314.791L314.852 110.322H321.611C324.387 110.322 325.172 109.296 327.405 101.692H328.31L328.37 111.167H308.213Z" fill="#002E53"/>
<path d="M343.398 87.0264H343.277L343.398 110.201H346.596V111.046H339.777V110.262L342.311 110.201L342.251 86.3022H339.656V85.5177L347.079 85.4573L358.486 103.864H358.546L358.486 86.2419H355.408V85.4573L362.107 85.397V86.2419H359.511L359.632 110.986H358.304L343.398 87.0264Z" fill="#002E53"/>
</svg>
