<svg width="364" height="137" viewBox="0 0 364 137" fill="none" xmlns="http://www.w3.org/2000/svg">
<path d="M351.273 78.2891H335.783V69.9822H351.226C354.185 69.9822 355.777 72.08 355.777 74.0579C355.777 76.5491 353.942 78.291 351.301 78.291M356.489 83.4793L356.864 83.3669C360.703 82.1307 362.914 78.8154 362.914 74.2827C362.914 68.495 358.343 64.2807 352.069 64.2807H328.656V93.3689H335.83V84.0225H348.679L355.908 93.3689H364L356.508 83.4793M255.757 87.3939V64.2039H248.865V93.3558H277.972V87.3808H255.757M144.404 70.576H160.094V93.3521H166.996V70.576H182.673V64.2357H144.404V70.576ZM0.0112382 70.576H15.6885V93.3521H22.5963V70.576H38.2736V64.2357H0V70.576M62.6474 88.2949C57.2718 88.2949 50.7911 85.8899 50.7911 78.7611C50.7911 72.2242 56.7286 69.2948 62.6099 69.2948C70.0084 69.2948 74.4288 72.8348 74.4288 78.7649C74.4288 84.8148 70.0646 88.2986 62.6661 88.2986M62.6287 63.4247C53.6756 63.4247 43.224 67.4405 43.224 78.7649C43.224 84.796 46.6891 88.411 49.5736 90.3777C53.0949 92.7695 57.8712 94.1425 62.6474 94.1425C67.7982 94.1425 72.5745 92.7452 76.1145 90.196C80.0104 87.3939 82.0708 83.4381 82.0708 78.7649C82.0708 69.4409 74.4662 63.4247 62.6661 63.4247M301.422 88.2986C296.046 88.2986 289.566 85.8899 289.566 78.7649C289.566 72.228 295.503 69.2948 301.384 69.2948C308.783 69.2948 313.203 72.8348 313.203 78.7649C313.203 84.8148 308.82 88.2986 301.441 88.2986M301.403 63.4247C292.469 63.4247 282.017 67.4405 282.017 78.7649C282.017 84.796 285.464 88.411 288.363 90.3777C291.884 92.7695 296.649 94.1425 301.427 94.1425C306.578 94.1425 311.355 92.7452 314.887 90.196C318.783 87.3939 320.83 83.4381 320.83 78.7649C320.83 69.4409 313.207 63.4247 301.426 63.4247M196.049 80.8252L201.949 69.9991L207.849 80.814L196.03 80.8233L196.049 80.8252ZM206.088 64.1833H197.791L181.757 93.3464H189.193L192.921 86.5099H210.958L214.667 93.3464H222.228L206.064 64.1646L206.088 64.1833ZM230.213 93.3464H237.611V64.2414H230.213M109.546 77.184L98.1021 64.217H89.8607V93.3614H96.6411V72.5333L97.1244 73.0203L109.561 86.9894L122.092 73.0203L122.573 72.5333V93.3614H129.359V64.217H121.118L109.565 77.184M220.542 7.3142C209.75 2.00789 196.347 0 183.112 0C169.881 0 156.545 2.00789 145.752 7.3142C145.033 7.73002 144.426 8.20764 144.39 9.04301V22.173C144.334 23.1207 144.671 23.4747 145.533 23.2331C150.916 21.4537 157.801 19.8486 162.9 19.3428C163.649 19.2304 164.123 19.5301 164.136 20.3355L164.155 37.7922C164.23 38.4478 164.479 38.8599 164.913 38.991C168.884 40.1522 176.844 41.4634 183.114 41.4634C189.388 41.4634 197.414 40.1522 201.379 38.991C201.81 38.8411 202.054 38.4291 202.129 37.7735V20.3168C202.147 19.5114 202.616 19.2117 203.365 19.3054C208.459 19.8111 215.333 21.4032 220.728 23.1826C221.589 23.4073 221.927 23.0702 221.852 22.1149V9.00368C221.833 8.16081 221.215 7.69255 220.484 7.26176" fill="#0C1D2C"/>
<path d="M179.154 126.52C178.9 126.512 178.647 126.555 178.411 126.646C178.174 126.738 177.958 126.876 177.775 127.053C177.593 127.23 177.448 127.441 177.349 127.675C177.25 127.909 177.199 128.16 177.199 128.414C177.199 128.668 177.25 128.92 177.349 129.153C177.448 129.387 177.593 129.599 177.775 129.776C177.958 129.952 178.174 130.091 178.411 130.182C178.647 130.274 178.9 130.317 179.154 130.309C180.197 130.309 181.042 129.466 181.042 128.417C181.042 127.368 180.199 126.518 179.169 126.518L179.154 126.52ZM161.008 121.768H162.248L162.834 118.69H166.854V128.295L164.275 129.045V129.925H171.842V129.045L169.257 128.295V118.69H173.34L173.921 121.768H175.176V117.061H160.978M147.53 119.958C147.53 118.653 148.916 118.209 150.133 118.209C151.201 118.209 152.287 118.687 152.868 119.176L153.317 121.798H154.835V117.471C153.655 117.059 151.856 116.497 150.189 116.497C147.342 116.497 145.282 117.996 145.282 120.337C145.282 124.607 152.83 123.708 152.83 126.855C152.83 128.147 151.126 128.765 149.89 128.765C148.935 128.765 147.717 128.204 147.005 127.698L146.556 124.945H145.095V129.496C146.256 129.927 147.923 130.451 149.665 130.451C152.624 130.451 155.265 129.196 155.265 126.424C155.265 121.873 147.455 122.491 147.455 119.925L147.53 119.958ZM136.516 128.237H131.534V123.916H135.711V122.225H131.534V118.698H136.31L137.022 121.114H137.977V117.061H126.61V117.922L129.12 118.698V128.269L126.61 129.033V129.925H137.998L138.719 125.967L137.857 125.705M236.36 126.319C237.621 125.375 240.5 123.351 240.5 121.157C240.5 117.996 237.952 116.456 235.237 116.456C233.538 116.456 231.678 117.274 230.498 118.23L231.584 119.76C232.727 119.011 233.963 118.393 235.443 118.393C237.072 118.393 238.177 119.348 238.177 121.071C238.177 122.869 234.843 125.192 233.382 126.39L230.535 128.769V129.931H240.43V128.132H233.912L236.366 126.334L236.36 126.319ZM188.223 117.96L190.744 118.739V128.273L188.235 129.028V129.908H195.689V129.009L193.179 128.241V118.689L195.689 117.939V117.04H188.253M221.818 117.471C220.732 117.471 219.364 117.977 218.615 118.333C219.814 115.092 222.286 112.714 225.901 111.271L225.321 110.035C219.027 111.871 215.3 117.303 215.469 122.828C215.6 126.743 217.529 130.039 221.556 130.039C225.133 130.039 227.418 127.192 227.418 123.727C227.418 119.494 224.984 117.452 221.837 117.452L221.818 117.471ZM221.856 128.541C219.57 128.672 217.941 126.012 217.866 123.334C217.847 121.648 218.072 120.43 218.241 119.719C218.877 119.494 220.413 118.895 221.631 118.895C223.897 118.895 225.002 121.255 225.058 123.839C225.133 126.443 224.122 128.41 221.874 128.541H221.856ZM205.879 116.46C202.32 116.46 199.997 119.307 199.997 122.772C199.997 127.005 202.451 129.028 205.598 129.028C206.703 129.028 208.07 128.541 208.8 128.166C207.583 131.406 205.111 133.785 201.514 135.209L202.114 136.464C208.426 134.628 212.153 129.178 211.985 123.652C211.854 119.719 209.943 116.422 205.916 116.422L205.879 116.46ZM209.175 126.743C208.576 126.986 207.04 127.585 205.804 127.585C203.556 127.585 202.451 125.225 202.376 122.641C202.32 120.018 203.331 118.052 205.579 117.921C207.879 117.79 209.505 120.43 209.568 123.109C209.61 124.319 209.484 125.529 209.194 126.705L209.175 126.743Z" fill="#A8A8A7"/>
</svg>
