<svg width="390" height="148" viewBox="0 0 390 148" fill="none" xmlns="http://www.w3.org/2000/svg">
<path fill-rule="evenodd" clip-rule="evenodd" d="M131.85 20.7555L194.657 20.782C194.997 20.6185 241.357 20.7025 249.472 20.7069C252.093 20.7069 254.789 20.6406 257.401 20.7201L257.379 62.0812L194.621 62.0768L131.85 62.0856V82.859H257.45V0.128019C256.893 -0.0885545 243.54 0.0352019 241.772 0.0352019C205.132 0.0352019 168.491 0.0352019 131.85 0.0352019V20.7555Z" fill="#201553"/>
<path fill-rule="evenodd" clip-rule="evenodd" d="M194.621 62.0725L257.379 62.0769L257.401 20.7159C254.789 20.6407 252.097 20.707 249.472 20.7026C241.353 20.6938 194.997 20.6098 194.657 20.7777L194.621 62.0725Z" fill="#E41022"/>
<path fill-rule="evenodd" clip-rule="evenodd" d="M131.85 62.0811L194.621 62.0722L194.657 20.7819L131.85 20.7554V62.0811Z" fill="white"/>
<path fill-rule="evenodd" clip-rule="evenodd" d="M180.058 87.8404V115.022H184.045V93.8204C184.35 94.0237 184.336 94.0856 184.553 94.3994C185.264 95.4514 187.435 97.9265 188.177 99.0226L192.031 103.96C192.045 103.973 192.062 103.991 192.075 104.004C192.093 104.021 192.151 104.075 192.164 104.097C192.27 104.234 192.239 104.132 192.292 104.331H193.11C193.203 103.986 194.772 102.086 195.09 101.688L196.367 100.066C196.464 99.9552 196.403 100.03 196.504 99.9287L197.711 98.4171C197.892 98.2049 198.051 97.9663 198.206 97.7364L200.288 95.1066C200.526 94.784 201.065 94.0237 201.362 93.8249V115.027H205.348V87.5708H201.631L200.628 88.8304C200.19 89.2901 199.846 89.8691 199.435 90.3553L198.051 92.0525C197.941 92.1762 197.865 92.2735 197.764 92.4017L193.304 98.0016C193.189 98.143 193.114 98.1917 193.004 98.3331C192.92 98.4392 192.818 98.6027 192.747 98.7132C192.482 98.5364 192.403 98.3419 192.182 98.1033C191.974 97.8734 191.801 97.6613 191.607 97.4094L184.098 87.973C183.916 87.7299 183.943 87.8625 183.868 87.5708H180.876C180.469 87.5619 180.058 87.4558 180.058 87.8404Z" fill="#201553"/>
<path fill-rule="evenodd" clip-rule="evenodd" d="M227.182 115.022H231.169V93.82C231.182 93.8377 231.204 93.8421 231.209 93.8686C231.218 93.9084 231.28 93.9482 231.293 93.9659C231.328 94.0057 231.39 94.0852 231.417 94.1162L236.539 100.68C236.663 100.83 236.707 100.848 236.84 101.016L238.378 103.009C238.577 103.305 238.687 103.362 238.908 103.659C239.09 103.902 239.266 104.109 239.412 104.33H240.137C240.796 103.349 241.905 102.063 242.661 101.055L246.435 96.2244C246.453 96.2023 246.502 96.1449 246.519 96.1272L248.38 93.82V115.022H252.367V87.5659H248.65C248.371 88.0875 246.197 90.62 245.657 91.3714L243.147 94.4786C242.957 94.6996 242.811 94.9603 242.617 95.2167L240.986 97.2101C240.968 97.2277 240.915 97.2808 240.897 97.3029C240.548 97.6741 240.027 98.5316 239.77 98.7172C239.536 98.5581 239.399 98.315 239.227 98.0808L231.425 88.304C231.412 88.2908 231.395 88.2731 231.381 88.2598C231.134 87.9991 230.975 87.8886 230.891 87.5703H227.174V115.022H227.182Z" fill="#201553"/>
<path fill-rule="evenodd" clip-rule="evenodd" d="M147.709 111.672C146.507 111.672 144.505 111.477 143.448 110.947C142.847 110.646 142.175 110.47 141.415 109.9C139.965 108.817 140.08 109.002 138.891 107.438C138.494 106.916 138.22 106.395 137.968 105.824L137.583 104.94C137.473 104.658 137.521 104.768 137.446 104.445C137.026 102.607 137.017 102.686 137.017 100.706C137.017 100.255 137.066 100.052 137.132 99.6454C137.375 98.2222 137.495 97.6874 138.118 96.3703L139.382 94.4609C140.372 93.3825 141.552 92.388 142.922 91.8355C143.108 91.7604 143.13 91.7427 143.302 91.672C144.12 91.314 146.052 90.9206 146.989 90.9206C149.088 90.9206 150.051 91.1063 151.868 91.84C152.624 92.1449 153.627 92.7593 154.25 93.2631L155.134 94.1029C155.148 94.1162 155.165 94.1383 155.179 94.1515C156.098 95.1681 156.84 96.441 157.309 97.7272C157.919 99.4112 158.029 102.037 157.592 103.791C157.508 104.118 157.433 104.49 157.318 104.786C156.854 106.01 156.593 106.607 155.775 107.681C154.896 108.843 153.645 109.953 152.297 110.545L150.958 111.106C149.83 111.411 148.902 111.672 147.709 111.672ZM132.845 100.976C132.845 103.199 133.265 105.108 134.1 107.15C134.215 107.433 134.268 107.486 134.37 107.698L135.165 109.077C135.254 109.21 135.249 109.228 135.325 109.374C135.484 109.679 135.484 109.612 135.669 109.842L136.863 111.279L138.741 112.843L140.942 114.085C141.181 114.196 141.291 114.218 141.534 114.311C141.724 114.381 141.972 114.492 142.18 114.571C142.785 114.797 143.523 115.044 144.177 115.111C144.553 115.15 144.624 115.159 144.977 115.217C147.435 115.632 150.18 115.402 152.509 114.567C152.695 114.501 152.655 114.527 152.867 114.47C153.587 114.266 154.334 113.877 154.988 113.511C156.085 112.901 157.083 112.123 157.972 111.239L159.161 109.891C159.85 109.122 160.451 107.769 160.889 106.819C161.618 105.241 162.025 103.018 162.025 101.338C162.025 99.9283 161.769 98.1869 161.327 96.8698C161.053 96.0477 160.695 95.1593 160.266 94.3991L159.806 93.5902C159.373 92.7902 158.692 91.9991 158.065 91.3449C157.556 90.8145 156.902 90.4477 156.372 89.9571L154.224 88.6621C153.349 88.2024 152.314 87.9328 151.351 87.6411C150.719 87.4466 148.964 87.2035 148.257 87.2035C147.249 87.2035 146.113 87.1284 145.137 87.345L143.674 87.6013C143.426 87.6632 143.298 87.7383 143.055 87.7958C141.959 88.0654 140.951 88.5074 139.965 89.0554C139.466 89.3339 138.829 89.6345 138.401 90.0278C138.197 90.2179 138.113 90.2621 137.906 90.4389L134.975 93.7582C134.414 94.5184 133.716 96.1803 133.468 97.1438C133.132 98.4034 132.845 99.6057 132.845 100.976Z" fill="#201553"/>
<path fill-rule="evenodd" clip-rule="evenodd" d="M214.948 133.418C214.948 134.244 215.054 134.885 215.183 135.72C215.231 136.048 215.231 136.277 215.289 136.52C215.607 137.864 216.04 139.146 216.743 140.326C216.84 140.494 216.778 140.392 216.867 140.565C217.256 141.32 218.36 142.752 219.006 143.323C220.721 144.83 221.256 145.144 223.196 146.107C223.514 146.266 224.053 146.478 224.447 146.58C224.924 146.704 225.238 146.828 225.804 146.942C226.276 147.04 226.657 147.186 227.275 147.194C227.726 147.199 227.748 147.256 228.093 147.283C229.202 147.371 231.832 147.318 232.844 147.146L235.907 146.492C236.199 146.417 236.23 146.377 236.451 146.31L239.784 145.02C239.722 144.909 239.695 144.923 239.695 144.746V133.418H230.634V137.042H235.801V142.478C233.857 143.411 229.569 143.91 227.483 143.367C226.78 143.186 226.091 143.049 225.432 142.788C224.774 142.531 224.252 142.266 223.695 141.895C222.776 141.285 221.574 140.326 221.012 139.415L220.058 137.74C220.018 137.652 219.96 137.564 219.96 137.564C219.872 137.391 219.934 137.541 219.85 137.312C219.779 137.113 219.739 137.011 219.682 136.848C219.134 135.318 219.001 133.511 219.231 131.888C219.435 130.461 219.801 128.839 220.69 127.641L221.627 126.403C221.773 126.244 221.658 126.372 221.795 126.209L222.701 125.303C223.134 124.901 223.717 124.485 224.257 124.229L228.089 122.987C229.432 122.841 231.244 122.845 232.504 123.128C232.734 123.181 232.889 123.226 233.083 123.274C233.317 123.332 233.499 123.34 233.773 123.402L237.255 124.631C239.77 125.736 239.249 126.673 239.249 121.732C239.249 121.471 239.094 121.435 238.904 121.351C238.749 121.285 238.59 121.237 238.378 121.153L235.753 120.154C235.483 120.052 235.54 120.056 235.209 119.972C232.584 119.318 231.284 119.058 228.464 119.195L226.091 119.539C225.834 119.606 225.693 119.619 225.423 119.685L224.08 120.154C223.806 120.264 223.686 120.282 223.421 120.401C221.808 121.139 220.42 122.028 219.156 123.292L216.836 126.319C216.694 126.585 216.632 126.651 216.513 126.903C216.504 126.921 216.495 126.947 216.486 126.965C216.478 126.982 216.469 127.009 216.456 127.027L215.969 128.079C215.315 129.762 214.948 131.606 214.948 133.418Z" fill="#201553"/>
<path fill-rule="evenodd" clip-rule="evenodd" d="M85 146.916H89.0751V135.049H103.939V146.916H107.926V119.553H103.939V131.424H89.0751V119.553H85V146.916Z" fill="#201553"/>
<path fill-rule="evenodd" clip-rule="evenodd" d="M287.262 131.513V122.996C289.348 122.996 290.329 122.837 292.212 123.301L293.67 124.017C293.896 124.202 294.002 124.348 294.188 124.587C295.456 126.218 295.102 129.241 293.684 130.324C291.288 132.158 288.141 131.15 287.262 131.513ZM283.275 146.916H287.262V135.137C289.193 135.137 289.816 134.938 291.279 135.738L292.039 136.335C293.555 137.612 294.112 138.7 295.235 140.207L295.456 140.529C295.567 140.706 295.628 140.799 295.743 140.967L297.883 144.357C298.081 144.649 298.223 144.914 298.408 145.192L299.496 146.912H304.207L303.133 145.267C303.018 145.117 302.961 145.086 302.846 144.923L301.569 143.031C301.555 143.018 301.542 142.996 301.529 142.978C301.516 142.965 301.498 142.943 301.489 142.929L299.562 139.782C299.416 139.584 299.412 139.57 299.275 139.345L298.165 137.648C297.741 136.949 296.247 135.159 295.562 134.633C295.27 134.408 295.049 134.147 294.691 134.054V133.873C295.178 133.758 296.022 133.214 296.442 132.905C298.161 131.632 299.133 129.365 299.133 127.261C299.133 126.669 298.996 126.05 298.899 125.502C298.744 124.631 298.806 124.989 298.563 124.295C297.834 122.218 296.327 121.038 294.364 120.247C294.179 120.171 294.165 120.141 293.993 120.074C293.056 119.707 291.346 119.557 290.342 119.557H283.275V146.916Z" fill="#201553"/>
<path fill-rule="evenodd" clip-rule="evenodd" d="M254.365 146.916H270.223V143.561C270.223 143.354 270.161 143.292 269.953 143.292H258.356V134.956H269.41V131.239H258.356V123.173H269.591C269.799 123.173 269.865 123.111 269.865 122.899V119.548H254.369V146.916H254.365Z" fill="#201553"/>
<path fill-rule="evenodd" clip-rule="evenodd" d="M170.904 146.916H174.891V134.319H185.132C185.34 134.319 185.406 134.258 185.406 134.05V130.607H174.896V123.177H185.406V119.553H170.909V146.916H170.904Z" fill="#201553"/>
<path fill-rule="evenodd" clip-rule="evenodd" d="M96.1425 91.1907H105.203C105.411 91.1907 105.477 91.2526 105.477 91.4603V115.018H109.464V91.1863H118.799V87.562H96.1425V91.1907Z" fill="#201553"/>
<path fill-rule="evenodd" clip-rule="evenodd" d="M279.107 100.433V115.023C283.606 115.023 283.107 115.319 283.094 114.116L283.089 101.157C283.076 100.101 283.129 100.578 283.854 99.5663L287.854 94.4127C287.867 94.3995 287.885 94.3774 287.894 94.3641L290.541 90.9387C290.691 90.7177 290.868 90.4614 291.045 90.2669C291.434 89.8338 291.73 89.4095 292.075 88.9409C292.349 88.5741 292.946 87.9995 293.06 87.5708H288.256C288.172 87.8846 286.391 90.0724 286.042 90.5233L281.246 96.689C281.047 96.9232 281.167 96.8348 280.915 96.9011C280.795 96.4636 278.263 93.4183 277.887 92.8614L275.067 89.1575C275.05 89.1354 275.001 89.078 274.983 89.0603C274.886 88.9454 274.815 88.8658 274.736 88.7642L273.847 87.5708H269.136C269.268 88.0702 270.325 89.1796 270.625 89.6172L277.617 98.6646C278.21 99.3055 278.638 100.123 279.107 100.433Z" fill="#201553"/>
<path fill-rule="evenodd" clip-rule="evenodd" d="M143.718 146.916H159.85V143.292H147.709V119.553H143.718V146.916Z" fill="#201553"/>
<path d="M202.895 119.553H198.909V146.916H202.895V119.553Z" fill="#201553"/>
<path d="M127.952 119.553H123.965V146.916H127.952V119.553Z" fill="#201553"/>
</svg>
