<svg width="16" height="16" viewBox="0 0 16 16" fill="none" xmlns="http://www.w3.org/2000/svg">
<rect width="16" height="16" rx="3" fill="#210E05"/>
<path d="M5.6131 10.3586C5.31443 10.3586 5.0531 10.3003 4.8291 10.1836C4.60976 10.0669 4.42543 9.90828 4.2761 9.70761C4.13143 9.50228 4.02176 9.26894 3.9471 9.00761C3.87243 8.74628 3.8351 8.47328 3.8351 8.18861C3.62976 8.11394 3.45943 8.00661 3.3241 7.86661C3.19343 7.72194 3.1281 7.54228 3.1281 7.32761C3.1281 7.21094 3.15376 7.11294 3.2051 7.03361C3.2611 6.95428 3.3241 6.88894 3.3941 6.83761C3.46876 6.78628 3.53643 6.75128 3.5971 6.73261C3.60176 6.73261 3.60643 6.73261 3.6111 6.73261C3.61576 6.72794 3.62043 6.72561 3.6251 6.72561C3.65776 6.72561 3.6741 6.74428 3.6741 6.78161C3.6741 6.80961 3.65776 6.83061 3.6251 6.84461C3.5691 6.86794 3.51543 6.92394 3.4641 7.01261C3.41743 7.10128 3.3941 7.18994 3.3941 7.27861C3.3941 7.41861 3.4361 7.54228 3.5201 7.64961C3.60876 7.75228 3.7161 7.84094 3.8421 7.91561C3.86543 7.57961 3.93543 7.24828 4.0521 6.92161C4.17343 6.59494 4.3391 6.30094 4.5491 6.03961C4.7591 5.77361 5.01343 5.56361 5.3121 5.40961C5.61543 5.25094 5.96076 5.17161 6.3481 5.17161C6.7961 5.17161 7.12743 5.27661 7.3421 5.48661C7.55676 5.69661 7.6641 5.95561 7.6641 6.26361C7.6641 6.48294 7.6291 6.68361 7.5591 6.86561C7.6991 7.15961 7.7691 7.49794 7.7691 7.88061C7.7691 8.17461 7.72476 8.46861 7.6361 8.76261C7.54743 9.05194 7.4121 9.31794 7.2301 9.56061C7.05276 9.79861 6.82876 9.98994 6.5581 10.1346C6.28743 10.2839 5.97243 10.3586 5.6131 10.3586ZM4.7801 8.16761C4.99943 8.16761 5.2281 8.14194 5.4661 8.09061C5.70876 8.03928 5.9421 7.95994 6.1661 7.85261C6.39476 7.74528 6.59776 7.61228 6.7751 7.45361C6.95243 7.29028 7.0901 7.09661 7.1881 6.87261C7.1041 6.69528 6.9851 6.54361 6.8311 6.41761C6.68176 6.29161 6.49276 6.20528 6.2641 6.15861C6.24543 6.15394 6.2361 6.14461 6.2361 6.13061C6.2361 6.09794 6.26176 6.08161 6.3131 6.08161H6.3831C6.57443 6.08161 6.7471 6.11661 6.9011 6.18661C7.0551 6.25661 7.1881 6.35228 7.3001 6.47361C7.3141 6.38961 7.3211 6.30328 7.3211 6.21461C7.3211 5.99994 7.26743 5.82961 7.1601 5.70361C7.05743 5.57294 6.93143 5.47961 6.7821 5.42361C6.63276 5.36294 6.4951 5.33261 6.3691 5.33261C6.07976 5.33261 5.81843 5.41428 5.5851 5.57761C5.35176 5.74094 5.1511 5.95794 4.9831 6.22861C4.8151 6.49928 4.6821 6.80028 4.5841 7.13161C4.4861 7.45828 4.42543 7.78728 4.4021 8.11861C4.4721 8.13728 4.53976 8.15128 4.6051 8.16061C4.6751 8.16528 4.73343 8.16761 4.7801 8.16761ZM5.5921 10.1976C5.8441 10.1976 6.07743 10.1229 6.2921 9.97361C6.50676 9.82428 6.69343 9.62828 6.8521 9.38561C7.01543 9.14294 7.14143 8.87694 7.2301 8.58761C7.31876 8.29361 7.3631 8.00428 7.3631 7.71961C7.3631 7.64494 7.35843 7.57261 7.3491 7.50261C7.34443 7.43261 7.33743 7.36494 7.3281 7.29961C7.14143 7.54694 6.90343 7.74761 6.6141 7.90161C6.32476 8.05561 6.0191 8.16761 5.6971 8.23761C5.37976 8.30761 5.0811 8.34261 4.8011 8.34261C4.66576 8.34261 4.53043 8.33561 4.3951 8.32161V8.38461C4.3951 8.70661 4.4371 9.00528 4.5211 9.28061C4.6051 9.55594 4.73576 9.77761 4.9131 9.94561C5.09043 10.1136 5.31676 10.1976 5.5921 10.1976ZM9.70766 10.3796C9.62833 10.3796 9.55133 10.3773 9.47666 10.3726C9.40666 10.3679 9.33899 10.3609 9.27366 10.3516C8.90033 10.2909 8.63199 10.1953 8.46866 10.0646C8.30533 9.93394 8.22366 9.78928 8.22366 9.63061C8.22366 9.49061 8.27733 9.35061 8.38466 9.21061C8.49666 9.06594 8.64599 8.93528 8.83266 8.81861C9.02399 8.69728 9.24333 8.60161 9.49066 8.53161C9.73799 8.45694 10.0017 8.41961 10.2817 8.41961C10.3563 8.41961 10.4427 8.42661 10.5407 8.44061C10.6387 8.44994 10.7017 8.46161 10.7297 8.47561C10.7577 8.48961 10.7717 8.50828 10.7717 8.53161C10.7717 8.56428 10.7437 8.58061 10.6877 8.58061H10.6457C10.599 8.58061 10.55 8.57828 10.4987 8.57361C10.4473 8.56428 10.396 8.55961 10.3447 8.55961C10.1207 8.55961 9.90833 8.59228 9.70766 8.65761C9.50699 8.72294 9.32966 8.80694 9.17566 8.90961C9.02166 9.01228 8.90033 9.12661 8.81166 9.25261C8.72299 9.37394 8.67866 9.49294 8.67866 9.60961C8.67866 9.74028 8.73699 9.85694 8.85366 9.95961C8.97499 10.0623 9.17099 10.1346 9.44166 10.1766C9.49299 10.1813 9.54666 10.1859 9.60266 10.1906C9.65866 10.1999 9.71233 10.2046 9.76366 10.2046C10.0203 10.2046 10.2653 10.1626 10.4987 10.0786C10.732 9.99461 10.9397 9.88494 11.1217 9.74961C11.3083 9.60961 11.4553 9.45794 11.5627 9.29461C11.67 9.13128 11.7237 8.97261 11.7237 8.81861C11.7237 8.70661 11.691 8.60161 11.6257 8.50361C11.565 8.40561 11.4623 8.31928 11.3177 8.24461C11.1497 8.16061 10.9677 8.09061 10.7717 8.03461C10.5803 7.97394 10.3867 7.91561 10.1907 7.85961C9.99466 7.80361 9.80799 7.74061 9.63066 7.67061C9.45333 7.60061 9.29699 7.50961 9.16166 7.39761C9.06366 7.31828 8.99133 7.22728 8.94466 7.12461C8.90266 7.02194 8.88166 6.91461 8.88166 6.80261C8.88166 6.66728 8.91199 6.53428 8.97266 6.40361C9.03333 6.26828 9.11499 6.14461 9.21766 6.03261C9.38099 5.85994 9.57233 5.71994 9.79166 5.61261C10.011 5.50061 10.242 5.41661 10.4847 5.36061C10.7273 5.30461 10.963 5.27661 11.1917 5.27661H11.2197C11.663 5.27661 11.985 5.34661 12.1857 5.48661C12.391 5.62194 12.4937 5.77828 12.4937 5.95561C12.4937 6.09561 12.433 6.23561 12.3117 6.37561C12.1903 6.51094 12.02 6.62528 11.8007 6.71861C11.5813 6.80728 11.32 6.85161 11.0167 6.85161H10.9887C10.9607 6.85161 10.935 6.83994 10.9117 6.81661C10.893 6.78861 10.8837 6.76528 10.8837 6.74661C10.8837 6.72328 10.8953 6.71161 10.9187 6.71161C11.124 6.71161 11.3177 6.66494 11.4997 6.57161C11.6863 6.47828 11.8357 6.36394 11.9477 6.22861C12.0643 6.08861 12.1227 5.95561 12.1227 5.82961C12.1227 5.72228 12.0667 5.62894 11.9547 5.54961C11.8473 5.46561 11.663 5.42361 11.4017 5.42361H11.3807C11.1567 5.42361 10.928 5.46094 10.6947 5.53561C10.466 5.61028 10.2537 5.70828 10.0577 5.82961C9.86166 5.95094 9.70299 6.08628 9.58166 6.23561C9.46033 6.38028 9.39966 6.52728 9.39966 6.67661C9.39966 6.76528 9.42533 6.85161 9.47666 6.93561C9.52799 7.01961 9.61199 7.09661 9.72866 7.16661C9.87799 7.25994 10.06 7.33694 10.2747 7.39761C10.494 7.45828 10.7203 7.52128 10.9537 7.58661C11.1917 7.64728 11.4133 7.72194 11.6187 7.81061C11.824 7.89928 11.9897 8.01594 12.1157 8.16061C12.2463 8.30061 12.3117 8.48261 12.3117 8.70661C12.3117 8.75328 12.3093 8.80228 12.3047 8.85361C12.3 8.90494 12.2907 8.95628 12.2767 9.00761C12.216 9.25494 12.0947 9.46728 11.9127 9.64461C11.7307 9.81728 11.5137 9.95728 11.2617 10.0646C11.0097 10.1719 10.746 10.2513 10.4707 10.3026C10.2 10.3539 9.94566 10.3796 9.70766 10.3796Z" fill="#BD9F17"/>
<path d="M5.513 10.259C5.21433 10.259 4.953 10.2007 4.729 10.084C4.50967 9.96733 4.32533 9.80867 4.176 9.608C4.03133 9.40267 3.92167 9.16933 3.847 8.908C3.77233 8.64667 3.735 8.37367 3.735 8.089C3.52967 8.01433 3.35933 7.907 3.224 7.767C3.09333 7.62233 3.028 7.44267 3.028 7.228C3.028 7.11133 3.05367 7.01333 3.105 6.934C3.161 6.85467 3.224 6.78933 3.294 6.738C3.36867 6.68667 3.43633 6.65167 3.497 6.633C3.50167 6.633 3.50633 6.633 3.511 6.633C3.51567 6.62833 3.52033 6.626 3.525 6.626C3.55767 6.626 3.574 6.64467 3.574 6.682C3.574 6.71 3.55767 6.731 3.525 6.745C3.469 6.76833 3.41533 6.82433 3.364 6.913C3.31733 7.00167 3.294 7.09033 3.294 7.179C3.294 7.319 3.336 7.44267 3.42 7.55C3.50867 7.65267 3.616 7.74133 3.742 7.816C3.76533 7.48 3.83533 7.14867 3.952 6.822C4.07333 6.49533 4.239 6.20133 4.449 5.94C4.659 5.674 4.91333 5.464 5.212 5.31C5.51533 5.15133 5.86067 5.072 6.248 5.072C6.696 5.072 7.02733 5.177 7.242 5.387C7.45667 5.597 7.564 5.856 7.564 6.164C7.564 6.38333 7.529 6.584 7.459 6.766C7.599 7.06 7.669 7.39833 7.669 7.781C7.669 8.075 7.62467 8.369 7.536 8.663C7.44733 8.95233 7.312 9.21833 7.13 9.461C6.95267 9.699 6.72867 9.89033 6.458 10.035C6.18733 10.1843 5.87233 10.259 5.513 10.259ZM4.68 8.068C4.89933 8.068 5.128 8.04233 5.366 7.991C5.60867 7.93967 5.842 7.86033 6.066 7.753C6.29467 7.64567 6.49767 7.51267 6.675 7.354C6.85233 7.19067 6.99 6.997 7.088 6.773C7.004 6.59567 6.885 6.444 6.731 6.318C6.58167 6.192 6.39267 6.10567 6.164 6.059C6.14533 6.05433 6.136 6.045 6.136 6.031C6.136 5.99833 6.16167 5.982 6.213 5.982H6.283C6.47433 5.982 6.647 6.017 6.801 6.087C6.955 6.157 7.088 6.25267 7.2 6.374C7.214 6.29 7.221 6.20367 7.221 6.115C7.221 5.90033 7.16733 5.73 7.06 5.604C6.95733 5.47333 6.83133 5.38 6.682 5.324C6.53267 5.26333 6.395 5.233 6.269 5.233C5.97967 5.233 5.71833 5.31467 5.485 5.478C5.25167 5.64133 5.051 5.85833 4.883 6.129C4.715 6.39967 4.582 6.70067 4.484 7.032C4.386 7.35867 4.32533 7.68767 4.302 8.019C4.372 8.03767 4.43967 8.05167 4.505 8.061C4.575 8.06567 4.63333 8.068 4.68 8.068ZM5.492 10.098C5.744 10.098 5.97733 10.0233 6.192 9.874C6.40667 9.72467 6.59333 9.52867 6.752 9.286C6.91533 9.04333 7.04133 8.77733 7.13 8.488C7.21867 8.194 7.263 7.90467 7.263 7.62C7.263 7.54533 7.25833 7.473 7.249 7.403C7.24433 7.333 7.23733 7.26533 7.228 7.2C7.04133 7.44733 6.80333 7.648 6.514 7.802C6.22467 7.956 5.919 8.068 5.597 8.138C5.27967 8.208 4.981 8.243 4.701 8.243C4.56567 8.243 4.43033 8.236 4.295 8.222V8.285C4.295 8.607 4.337 8.90567 4.421 9.181C4.505 9.45633 4.63567 9.678 4.813 9.846C4.99033 10.014 5.21667 10.098 5.492 10.098ZM9.60756 10.28C9.52823 10.28 9.45123 10.2777 9.37656 10.273C9.30656 10.2683 9.2389 10.2613 9.17356 10.252C8.80023 10.1913 8.5319 10.0957 8.36856 9.965C8.20523 9.83433 8.12356 9.68967 8.12356 9.531C8.12356 9.391 8.17723 9.251 8.28456 9.111C8.39656 8.96633 8.5459 8.83567 8.73256 8.719C8.9239 8.59767 9.14323 8.502 9.39056 8.432C9.6379 8.35733 9.90156 8.32 10.1816 8.32C10.2562 8.32 10.3426 8.327 10.4406 8.341C10.5386 8.35033 10.6016 8.362 10.6296 8.376C10.6576 8.39 10.6716 8.40867 10.6716 8.432C10.6716 8.46467 10.6436 8.481 10.5876 8.481H10.5456C10.4989 8.481 10.4499 8.47867 10.3986 8.474C10.3472 8.46467 10.2959 8.46 10.2446 8.46C10.0206 8.46 9.80823 8.49267 9.60756 8.558C9.4069 8.62333 9.22956 8.70733 9.07556 8.81C8.92156 8.91267 8.80023 9.027 8.71156 9.153C8.6229 9.27433 8.57856 9.39333 8.57856 9.51C8.57856 9.64067 8.6369 9.75733 8.75356 9.86C8.8749 9.96267 9.0709 10.035 9.34156 10.077C9.3929 10.0817 9.44656 10.0863 9.50256 10.091C9.55856 10.1003 9.61223 10.105 9.66356 10.105C9.92023 10.105 10.1652 10.063 10.3986 9.979C10.6319 9.895 10.8396 9.78533 11.0216 9.65C11.2082 9.51 11.3552 9.35833 11.4626 9.195C11.5699 9.03167 11.6236 8.873 11.6236 8.719C11.6236 8.607 11.5909 8.502 11.5256 8.404C11.4649 8.306 11.3622 8.21967 11.2176 8.145C11.0496 8.061 10.8676 7.991 10.6716 7.935C10.4802 7.87433 10.2866 7.816 10.0906 7.76C9.89456 7.704 9.7079 7.641 9.53056 7.571C9.35323 7.501 9.1969 7.41 9.06156 7.298C8.96356 7.21867 8.89123 7.12767 8.84456 7.025C8.80256 6.92233 8.78156 6.815 8.78156 6.703C8.78156 6.56767 8.8119 6.43467 8.87256 6.304C8.93323 6.16867 9.0149 6.045 9.11756 5.933C9.2809 5.76033 9.47223 5.62033 9.69156 5.513C9.9109 5.401 10.1419 5.317 10.3846 5.261C10.6272 5.205 10.8629 5.177 11.0916 5.177H11.1196C11.5629 5.177 11.8849 5.247 12.0856 5.387C12.2909 5.52233 12.3936 5.67867 12.3936 5.856C12.3936 5.996 12.3329 6.136 12.2116 6.276C12.0902 6.41133 11.9199 6.52567 11.7006 6.619C11.4812 6.70767 11.2199 6.752 10.9166 6.752H10.8886C10.8606 6.752 10.8349 6.74033 10.8116 6.717C10.7929 6.689 10.7836 6.66567 10.7836 6.647C10.7836 6.62367 10.7952 6.612 10.8186 6.612C11.0239 6.612 11.2176 6.56533 11.3996 6.472C11.5862 6.37867 11.7356 6.26433 11.8476 6.129C11.9642 5.989 12.0226 5.856 12.0226 5.73C12.0226 5.62267 11.9666 5.52933 11.8546 5.45C11.7472 5.366 11.5629 5.324 11.3016 5.324H11.2806C11.0566 5.324 10.8279 5.36133 10.5946 5.436C10.3659 5.51067 10.1536 5.60867 9.95756 5.73C9.76156 5.85133 9.6029 5.98667 9.48156 6.136C9.36023 6.28067 9.29956 6.42767 9.29956 6.577C9.29956 6.66567 9.32523 6.752 9.37656 6.836C9.4279 6.92 9.5119 6.997 9.62856 7.067C9.7779 7.16033 9.9599 7.23733 10.1746 7.298C10.3939 7.35867 10.6202 7.42167 10.8536 7.487C11.0916 7.54767 11.3132 7.62233 11.5186 7.711C11.7239 7.79967 11.8896 7.91633 12.0156 8.061C12.1462 8.201 12.2116 8.383 12.2116 8.607C12.2116 8.65367 12.2092 8.70267 12.2046 8.754C12.1999 8.80533 12.1906 8.85667 12.1766 8.908C12.1159 9.15533 11.9946 9.36767 11.8126 9.545C11.6306 9.71767 11.4136 9.85767 11.1616 9.965C10.9096 10.0723 10.6459 10.1517 10.3706 10.203C10.0999 10.2543 9.84556 10.28 9.60756 10.28Z" fill="#FFD100"/>
</svg>
