<svg width="112" height="32" viewBox="0 0 112 32" fill="none" xmlns="http://www.w3.org/2000/svg">
<path d="M10.6114 22.273C9.37407 22.273 8.29141 22.0313 7.36341 21.548C6.45474 21.0647 5.69107 20.4073 5.07241 19.576C4.47307 18.7253 4.01874 17.7587 3.70941 16.676C3.40007 15.5933 3.24541 14.4623 3.24541 13.283C2.39474 12.9737 1.68907 12.529 1.12841 11.949C0.587073 11.3497 0.316406 10.6053 0.316406 9.71599C0.316406 9.23265 0.42274 8.82665 0.635406 8.49799C0.867406 8.16932 1.12841 7.89865 1.41841 7.68599C1.72774 7.47332 2.00807 7.32832 2.25941 7.25099C2.27874 7.25099 2.29807 7.25099 2.31741 7.25099C2.33674 7.23165 2.35607 7.22199 2.37541 7.22199C2.51074 7.22199 2.57841 7.29932 2.57841 7.45398C2.57841 7.56998 2.51074 7.65699 2.37541 7.71498C2.14341 7.81165 1.92107 8.04365 1.70841 8.41099C1.51507 8.77832 1.41841 9.14565 1.41841 9.51299C1.41841 10.093 1.59241 10.6053 1.94041 11.05C2.30774 11.4753 2.75241 11.8427 3.27441 12.152C3.37107 10.76 3.66107 9.38732 4.14441 8.03399C4.64707 6.68065 5.33341 5.46265 6.20341 4.37998C7.07341 3.27799 8.12707 2.40799 9.36441 1.76999C10.6211 1.11265 12.0517 0.783984 13.6564 0.783984C15.5124 0.783984 16.8851 1.21898 17.7744 2.08898C18.6637 2.95899 19.1084 4.03199 19.1084 5.30798C19.1084 6.21665 18.9634 7.04799 18.6734 7.80199C19.2534 9.01999 19.5434 10.4217 19.5434 12.007C19.5434 13.225 19.3597 14.443 18.9924 15.661C18.6251 16.8597 18.0644 17.9617 17.3104 18.967C16.5757 19.953 15.6477 20.7457 14.5264 21.345C13.4051 21.9637 12.1001 22.273 10.6114 22.273ZM7.16041 13.196C8.06907 13.196 9.01641 13.0897 10.0024 12.877C11.0077 12.6643 11.9744 12.3357 12.9024 11.891C13.8497 11.4463 14.6907 10.8953 15.4254 10.238C16.1601 9.56132 16.7304 8.75899 17.1364 7.83099C16.7884 7.09632 16.2954 6.46799 15.6574 5.94599C15.0387 5.42399 14.2557 5.06632 13.3084 4.87299C13.2311 4.85365 13.1924 4.81499 13.1924 4.75699C13.1924 4.62165 13.2987 4.55399 13.5114 4.55399H13.8014C14.5941 4.55399 15.3094 4.69899 15.9474 4.98899C16.5854 5.27899 17.1364 5.67532 17.6004 6.17799C17.6584 5.82999 17.6874 5.47232 17.6874 5.10499C17.6874 4.21565 17.4651 3.50999 17.0204 2.98799C16.5951 2.44665 16.0731 2.05999 15.4544 1.82798C14.8357 1.57665 14.2654 1.45098 13.7434 1.45098C12.5447 1.45098 11.4621 1.78932 10.4954 2.46599C9.52874 3.14265 8.69741 4.04165 8.00141 5.16298C7.30541 6.28432 6.75441 7.53132 6.34841 8.90399C5.94241 10.2573 5.69107 11.6203 5.59441 12.993C5.88441 13.0703 6.16474 13.1283 6.43541 13.167C6.72541 13.1863 6.96707 13.196 7.16041 13.196ZM10.5244 21.606C11.5684 21.606 12.5351 21.2967 13.4244 20.678C14.3137 20.0593 15.0871 19.2473 15.7444 18.242C16.4211 17.2367 16.9431 16.1347 17.3104 14.936C17.6777 13.718 17.8614 12.5193 17.8614 11.34C17.8614 11.0307 17.8421 10.731 17.8034 10.441C17.7841 10.151 17.7551 9.87065 17.7164 9.59999C16.9431 10.6247 15.9571 11.456 14.7584 12.094C13.5597 12.732 12.2934 13.196 10.9594 13.486C9.64474 13.776 8.40741 13.921 7.24741 13.921C6.68674 13.921 6.12607 13.892 5.56541 13.834V14.095C5.56541 15.429 5.73941 16.6663 6.08741 17.807C6.43541 18.9477 6.97674 19.866 7.71141 20.562C8.44607 21.258 9.38374 21.606 10.5244 21.606Z" fill="#BD9F17"/>
<path d="M20.7886 31.176C20.1119 31.176 19.6383 30.8473 19.3676 30.19C19.0776 29.5327 18.9326 28.7207 18.9326 27.754C18.9326 27.348 18.9519 26.913 18.9906 26.449C19.0293 26.0043 19.0873 25.5597 19.1646 25.115C19.2613 24.4963 19.3966 23.8873 19.5706 23.288C19.7446 22.6887 19.9283 22.1183 20.1216 21.577C20.3923 20.8037 20.6919 20.0787 21.0206 19.402C21.3686 18.706 21.5426 17.9423 21.5426 17.111V16.995C21.5426 15.8543 21.4943 14.791 21.3976 13.805C21.3203 12.819 21.2139 11.9683 21.0786 11.253C20.9626 10.5377 20.8466 10.0157 20.7306 9.68699C21.1173 9.57099 21.4459 9.43565 21.7166 9.28099C21.9873 9.12632 22.2386 9.03932 22.4706 9.01999H22.6156C22.9829 9.01999 23.2149 9.21332 23.3116 9.59999C23.4083 9.96732 23.4663 10.412 23.4856 10.934C23.5049 11.282 23.5146 11.7363 23.5146 12.297C23.5146 12.8577 23.5243 13.4763 23.5436 14.153C23.8143 13.1863 24.1333 12.2487 24.5006 11.34C24.8679 10.4313 25.2739 9.68699 25.7186 9.10699C26.1633 8.50765 26.6176 8.20799 27.0816 8.20799C27.6616 8.20799 28.1063 8.41099 28.4156 8.81699C28.7443 9.22299 28.9763 9.73532 29.1116 10.354C29.2663 10.9533 29.3533 11.5623 29.3726 12.181C29.4113 12.7803 29.4306 13.283 29.4306 13.689C29.4306 14.6943 29.2953 15.748 29.0246 16.85C28.7733 17.952 28.3576 18.8897 27.7776 19.663H27.9806C28.6766 19.663 29.3629 19.344 30.0396 18.706C30.7356 18.0487 31.3253 17.0627 31.8086 15.748C31.8859 15.5547 31.9729 15.458 32.0696 15.458C32.2049 15.458 32.2726 15.5643 32.2726 15.777C32.2726 15.8543 32.2629 15.9123 32.2436 15.951C31.7216 17.459 31.0739 18.5513 30.3006 19.228C29.5466 19.9047 28.8023 20.243 28.0676 20.243C27.9516 20.243 27.8356 20.2333 27.7196 20.214C27.6036 20.1753 27.4876 20.1463 27.3716 20.127C27.0623 20.4557 26.7046 20.7167 26.2986 20.91C25.8926 21.1033 25.4383 21.2 24.9356 21.2C24.3749 21.2 23.9496 21.084 23.6596 20.852V22.128C23.6596 22.7273 23.6596 23.2687 23.6596 23.752C23.6596 24.2547 23.6499 24.6607 23.6306 24.97C23.5726 26.188 23.4663 27.1837 23.3116 27.957C23.1183 28.9043 22.8283 29.6777 22.4416 30.277C22.0549 30.8763 21.5329 31.176 20.8756 31.176H20.7886ZM24.5006 20.417C24.8099 20.417 25.0903 20.3203 25.3416 20.127C25.7863 19.779 26.1439 19.2183 26.4146 18.445C26.7046 17.6523 26.9076 16.8693 27.0236 16.096C27.0816 15.7673 27.1203 15.371 27.1396 14.907C27.1783 14.443 27.1976 13.9693 27.1976 13.486C27.1976 12.6547 27.1299 11.9103 26.9946 11.253C26.8593 10.5763 26.5983 10.238 26.2116 10.238C25.9796 10.238 25.7379 10.441 25.4866 10.847C25.2546 11.253 25.0226 11.7847 24.7906 12.442C24.5586 13.0993 24.3363 13.805 24.1236 14.559C23.9303 15.2937 23.7563 15.9993 23.6016 16.676C23.6209 17.2367 23.6306 17.7973 23.6306 18.358C23.6306 18.9187 23.6306 19.4793 23.6306 20.04C23.8819 20.2913 24.1719 20.417 24.5006 20.417ZM20.6726 30.248C20.7886 30.248 20.9046 30.161 21.0206 29.987C21.1559 29.8323 21.2719 29.5713 21.3686 29.204C21.5039 28.7013 21.5909 28.0537 21.6296 27.261C21.6876 26.4683 21.7166 25.637 21.7166 24.767C21.7166 23.8197 21.6973 22.8917 21.6586 21.983C21.6199 21.0937 21.5813 20.3493 21.5426 19.75C21.3686 20.156 21.1753 20.6393 20.9626 21.2C20.7499 21.7607 20.5663 22.3503 20.4116 22.969C20.2183 23.665 20.0636 24.3707 19.9476 25.086C19.8123 25.8207 19.7446 26.5553 19.7446 27.29C19.7446 27.9087 19.8026 28.5273 19.9186 29.146C19.9766 29.4167 20.0829 29.668 20.2376 29.9C20.3729 30.132 20.5179 30.248 20.6726 30.248Z" fill="#BD9F17"/>
<path d="M35.8681 21.751C34.9208 21.751 34.1088 21.5287 33.4321 21.084C32.7748 20.6393 32.2625 20.0497 31.8951 19.315C31.5471 18.561 31.3538 17.749 31.3151 16.879V16.299C31.3151 15.371 31.4118 14.443 31.6051 13.515C31.8178 12.587 32.1368 11.7363 32.5621 10.963C32.9875 10.1897 33.5288 9.57099 34.1861 9.10699C34.8435 8.62365 35.6265 8.38199 36.5351 8.38199H36.7381C37.2795 8.40132 37.6661 8.60432 37.8981 8.99098C38.1495 9.37765 38.2751 9.79332 38.2751 10.238V10.354C38.2751 11.398 38.0335 12.3067 37.5501 13.08C37.0861 13.834 36.4965 14.443 35.7811 14.907C35.0658 15.371 34.3215 15.69 33.5481 15.864V16.009C33.5481 16.4923 33.5868 17.0143 33.6641 17.575C33.7415 18.1163 33.8865 18.6383 34.0991 19.141C34.3118 19.6437 34.6115 20.0593 34.9981 20.388C35.3848 20.6973 35.8778 20.852 36.4771 20.852C37.2118 20.852 37.8305 20.62 38.3331 20.156C38.8358 19.692 39.2225 19.141 39.4931 18.503C39.6091 18.2323 39.7058 17.9327 39.7831 17.604C39.8798 17.256 39.9668 16.8887 40.0441 16.502C40.0828 16.27 40.1601 16.154 40.2761 16.154C40.4308 16.154 40.5081 16.3183 40.5081 16.647C40.5081 16.705 40.4985 16.7727 40.4791 16.85C40.4791 16.908 40.4695 16.9853 40.4501 17.082C40.3341 17.7587 40.1698 18.358 39.9571 18.88C39.5705 19.8853 39.0581 20.62 38.4201 21.084C37.8015 21.5287 36.9508 21.751 35.8681 21.751ZM33.5771 15.226C34.1765 15.052 34.6985 14.7427 35.1431 14.298C35.6071 13.834 35.9745 13.2927 36.2451 12.674C36.5158 12.0553 36.6608 11.427 36.6801 10.789V10.615C36.6801 10.2863 36.6221 9.96732 36.5061 9.65798C36.3901 9.34865 36.1968 9.19398 35.9261 9.19398H35.8971C35.5491 9.19398 35.2398 9.36799 34.9691 9.71599C34.7178 10.0447 34.5051 10.47 34.3311 10.992C34.1571 11.514 34.0121 12.0553 33.8961 12.616C33.7801 13.1767 33.6931 13.689 33.6351 14.153C33.5965 14.617 33.5771 14.9553 33.5771 15.168V15.226Z" fill="#BD9F17"/>
<path d="M40.7918 21.432C40.5211 21.432 40.2891 21.3353 40.0958 21.142C39.9218 20.9293 39.8348 20.5813 39.8348 20.098C39.8348 20.0207 39.8348 19.9433 39.8348 19.866C39.8348 19.7693 39.8445 19.6727 39.8638 19.576C39.9025 19.228 39.9411 18.7447 39.9798 18.126C40.0378 17.5073 40.0765 16.8113 40.0958 16.038C40.1345 15.2647 40.1538 14.4913 40.1538 13.718C40.1538 12.906 40.1248 12.1423 40.0668 11.427C40.0281 10.6923 39.9508 10.1123 39.8348 9.68699C39.9895 9.64832 40.1925 9.54199 40.4438 9.36799C40.6951 9.19399 40.9561 9.07799 41.2268 9.01999C41.2848 9.00065 41.3621 8.99098 41.4588 8.99098C41.7875 8.99098 41.9905 9.16499 42.0678 9.51299C42.1645 9.86099 42.2128 10.2863 42.2128 10.789C42.2128 11.137 42.2031 11.5527 42.1838 12.036C42.1838 12.5 42.1645 12.906 42.1258 13.254C42.3385 12.6353 42.5705 12.1037 42.8218 11.659C43.0731 11.195 43.3438 10.7503 43.6338 10.325C43.9238 9.88032 44.2331 9.44532 44.5618 9.01999C44.8905 8.57532 45.3351 8.35299 45.8958 8.35299C46.4758 8.35299 46.8528 8.54632 47.0268 8.93299C47.2008 9.31965 47.2878 9.74498 47.2878 10.209C47.2878 10.4603 47.2781 10.702 47.2588 10.934C47.2395 11.1467 47.2201 11.3497 47.2008 11.543C47.2008 11.6783 47.1718 12.036 47.1138 12.616C47.0558 13.1767 46.9978 13.8437 46.9398 14.617C46.8818 15.371 46.8528 16.1347 46.8528 16.908C46.8528 17.1207 46.8625 17.4203 46.8818 17.807C46.9011 18.1743 46.9398 18.5513 46.9978 18.938C47.0558 19.3053 47.1525 19.6243 47.2878 19.895C47.4425 20.1463 47.6455 20.272 47.8968 20.272C48.0515 20.272 48.2255 20.214 48.4188 20.098C48.6315 19.9433 48.8151 19.7403 48.9698 19.489C49.1438 19.2377 49.2791 18.9863 49.3758 18.735C49.4531 18.561 49.5305 18.3677 49.6078 18.155C49.6851 17.9423 49.7528 17.72 49.8108 17.488C49.8881 17.256 49.9945 17.14 50.1298 17.14C50.2265 17.14 50.2748 17.2367 50.2748 17.43V17.546C50.2748 17.6813 50.2458 17.8553 50.1878 18.068C50.1491 18.2807 50.0911 18.4933 50.0138 18.706C49.7818 19.4213 49.4338 20.0497 48.9698 20.591C48.5251 21.113 47.8968 21.374 47.0848 21.374C46.5435 21.374 46.1181 21.171 45.8088 20.765C45.5188 20.3397 45.3061 19.7983 45.1708 19.141C45.0935 18.7737 45.0355 18.4063 44.9968 18.039C44.9775 17.6717 44.9678 17.3043 44.9678 16.937C44.9678 16.0283 45.0258 15.1293 45.1418 14.24C45.2771 13.3313 45.3448 12.4613 45.3448 11.63C45.3448 11.3593 45.3061 11.108 45.2288 10.876C45.1708 10.6247 45.0258 10.499 44.7938 10.499C44.5618 10.499 44.2815 10.7213 43.9528 11.166C43.6241 11.5913 43.2858 12.2197 42.9378 13.051C42.5898 13.863 42.2998 14.791 42.0678 15.835C41.8358 16.8597 41.7198 17.9133 41.7198 18.996C41.7198 19.6533 41.7778 20.3203 41.8938 20.997C41.7585 21.0937 41.5845 21.1903 41.3718 21.287C41.1591 21.3837 40.9658 21.432 40.7918 21.432Z" fill="#BD9F17"/>
<path d="M61.5023 22.36C61.1737 22.36 60.8547 22.3503 60.5453 22.331C60.2553 22.3117 59.975 22.2827 59.7043 22.244C58.1577 21.9927 57.046 21.5963 56.3693 21.055C55.6927 20.5137 55.3543 19.9143 55.3543 19.257C55.3543 18.677 55.5767 18.097 56.0213 17.517C56.4853 16.9177 57.104 16.3763 57.8773 15.893C58.67 15.3903 59.5787 14.994 60.6033 14.704C61.628 14.3947 62.7203 14.24 63.8803 14.24C64.1897 14.24 64.5473 14.269 64.9533 14.327C65.3593 14.3657 65.6203 14.414 65.7363 14.472C65.8523 14.53 65.9103 14.6073 65.9103 14.704C65.9103 14.8393 65.7943 14.907 65.5623 14.907H65.3883C65.195 14.907 64.992 14.8973 64.7793 14.878C64.5667 14.8393 64.354 14.82 64.1413 14.82C63.2133 14.82 62.3337 14.9553 61.5023 15.226C60.671 15.4967 59.9363 15.8447 59.2983 16.27C58.6603 16.6953 58.1577 17.169 57.7903 17.691C57.423 18.1937 57.2393 18.6867 57.2393 19.17C57.2393 19.7113 57.481 20.1947 57.9643 20.62C58.467 21.0453 59.279 21.345 60.4003 21.519C60.613 21.5383 60.8353 21.5577 61.0673 21.577C61.2993 21.6157 61.5217 21.635 61.7343 21.635C62.7977 21.635 63.8127 21.461 64.7793 21.113C65.746 20.765 66.6063 20.3107 67.3603 19.75C68.1337 19.17 68.7427 18.5417 69.1873 17.865C69.632 17.1883 69.8543 16.531 69.8543 15.893C69.8543 15.429 69.719 14.994 69.4483 14.588C69.197 14.182 68.7717 13.8243 68.1723 13.515C67.4763 13.167 66.7223 12.877 65.9103 12.645C65.1177 12.3937 64.3153 12.152 63.5033 11.92C62.6913 11.688 61.918 11.427 61.1833 11.137C60.4487 10.847 59.801 10.47 59.2403 10.006C58.8343 9.67732 58.5347 9.30032 58.3413 8.87499C58.1673 8.44965 58.0803 8.00499 58.0803 7.54099C58.0803 6.98032 58.206 6.42932 58.4573 5.88799C58.7087 5.32732 59.047 4.81498 59.4723 4.35099C60.149 3.63565 60.9417 3.05565 61.8503 2.61099C62.759 2.14699 63.716 1.79899 64.7213 1.56698C65.7267 1.33499 66.703 1.21899 67.6503 1.21899H67.7663C69.603 1.21899 70.937 1.50899 71.7683 2.08898C72.619 2.64965 73.0443 3.29732 73.0443 4.03199C73.0443 4.61199 72.793 5.19199 72.2903 5.77199C71.7877 6.33265 71.082 6.80632 70.1733 7.19299C69.2647 7.56032 68.182 7.74399 66.9253 7.74399H66.8093C66.6933 7.74399 66.587 7.69565 66.4903 7.59899C66.413 7.48299 66.3743 7.38632 66.3743 7.30899C66.3743 7.21232 66.4227 7.16399 66.5193 7.16399C67.37 7.16399 68.1723 6.97065 68.9263 6.58399C69.6997 6.19732 70.3183 5.72365 70.7823 5.16298C71.2657 4.58299 71.5073 4.03199 71.5073 3.50999C71.5073 3.06532 71.2753 2.67865 70.8113 2.34999C70.3667 2.00198 69.603 1.82798 68.5203 1.82798H68.4333C67.5053 1.82798 66.558 1.98265 65.5913 2.29199C64.644 2.60132 63.7643 3.00732 62.9523 3.50999C62.1403 4.01265 61.483 4.57332 60.9803 5.19198C60.4777 5.79132 60.2263 6.40032 60.2263 7.01899C60.2263 7.38632 60.3327 7.74399 60.5453 8.09199C60.758 8.43999 61.106 8.75899 61.5893 9.04899C62.208 9.43565 62.962 9.75465 63.8513 10.006C64.76 10.2573 65.6977 10.5183 66.6643 10.789C67.6503 11.0403 68.5687 11.3497 69.4193 11.717C70.27 12.0843 70.9563 12.5677 71.4783 13.167C72.0197 13.747 72.2903 14.501 72.2903 15.429C72.2903 15.6223 72.2807 15.8253 72.2613 16.038C72.242 16.2507 72.2033 16.4633 72.1453 16.676C71.894 17.7007 71.3913 18.5803 70.6373 19.315C69.8833 20.0303 68.9843 20.6103 67.9403 21.055C66.8963 21.4997 65.804 21.8283 64.6633 22.041C63.542 22.2537 62.4883 22.36 61.5023 22.36Z" fill="#BD9F17"/>
<path d="M77.2271 21.751C76.2991 21.751 75.5451 21.4707 74.9651 20.91C74.4045 20.33 73.9888 19.6243 73.7181 18.793C73.4668 17.9423 73.3411 17.111 73.3411 16.299C73.3411 15.371 73.4378 14.443 73.6311 13.515C73.8245 12.5677 74.1241 11.7073 74.5301 10.934C74.9555 10.1607 75.4871 9.54199 76.1251 9.07799C76.7631 8.59465 77.5171 8.35299 78.3871 8.35299C79.0058 8.35299 79.4891 8.53665 79.8371 8.90399C80.1851 9.27132 80.3591 9.81265 80.3591 10.528C80.3591 11.4947 80.1175 12.355 79.6341 13.109C79.1701 13.8437 78.5805 14.443 77.8651 14.907C77.1498 15.371 76.4055 15.69 75.6321 15.864V16.009C75.6321 16.8017 75.7095 17.546 75.8641 18.242C76.0381 18.9187 76.3088 19.4697 76.6761 19.895C77.0628 20.301 77.5655 20.504 78.1841 20.504C78.9381 20.504 79.5181 20.1947 79.9241 19.576C80.3301 18.938 80.6491 18.1357 80.8811 17.169C80.9005 17.0917 80.9295 17.024 80.9681 16.966C81.0261 16.8887 81.0745 16.85 81.1131 16.85C81.2871 16.85 81.3645 16.9757 81.3451 17.227C81.2871 17.749 81.1711 18.242 80.9971 18.706C80.8231 19.17 80.6395 19.5663 80.4461 19.895C80.0788 20.4943 79.6341 20.9487 79.1121 21.258C78.6095 21.5867 77.9811 21.751 77.2271 21.751ZM75.6611 15.197C76.2798 15.0423 76.8211 14.7427 77.2851 14.298C77.7491 13.834 78.1068 13.2927 78.3581 12.674C78.6288 12.0553 78.7641 11.427 78.7641 10.789V10.644C78.7641 10.296 78.7061 9.96732 78.5901 9.65798C78.4935 9.34865 78.3001 9.19398 78.0101 9.19398C77.6621 9.19398 77.3528 9.36799 77.0821 9.71599C76.8308 10.0447 76.6085 10.47 76.4151 10.992C76.2411 11.514 76.0961 12.0553 75.9801 12.616C75.8641 13.1767 75.7771 13.689 75.7191 14.153C75.6805 14.617 75.6611 14.9553 75.6611 15.168V15.197Z" fill="#BD9F17"/>
<path d="M84.9033 21.635C84.014 21.635 83.289 21.432 82.7283 21.026C82.1676 20.6007 81.7423 20.0593 81.4523 19.402C81.1816 18.7253 81.0173 18.0003 80.9593 17.227C80.94 17.0723 80.9303 16.9273 80.9303 16.792C80.9303 16.6373 80.9303 16.4827 80.9303 16.328C80.9303 15.5353 81.0076 14.6943 81.1623 13.805C81.3363 12.8963 81.6166 12.0457 82.0033 11.253C82.39 10.4603 82.8926 9.81265 83.5113 9.30999C84.1493 8.80732 84.9323 8.55599 85.8603 8.55599C86.4403 8.55599 86.9043 8.77832 87.2523 9.22299C87.6196 9.64832 87.8033 10.1413 87.8033 10.702C87.8033 11.3013 87.7066 11.746 87.5133 12.036C87.32 12.3067 87.088 12.442 86.8173 12.442C86.3533 12.442 86.1213 11.949 86.1213 10.963C86.1213 10.5763 86.0633 10.2187 85.9473 9.88999C85.8313 9.56132 85.609 9.39699 85.2803 9.39699C84.913 9.39699 84.6036 9.58065 84.3523 9.94799C84.1203 10.296 83.927 10.7503 83.7723 11.311C83.6176 11.8523 83.492 12.4323 83.3953 13.051C83.318 13.6503 83.26 14.2207 83.2213 14.762C83.202 15.284 83.1923 15.69 83.1923 15.98V16.096C83.1923 16.8887 83.26 17.633 83.3953 18.329C83.5306 19.025 83.782 19.5857 84.1493 20.011C84.5166 20.4363 85.029 20.649 85.6863 20.649C86.3243 20.649 86.856 20.475 87.2813 20.127C87.7066 19.7597 88.045 19.315 88.2963 18.793C88.567 18.2517 88.77 17.7007 88.9053 17.14C89.06 16.5793 89.176 16.1057 89.2533 15.719C89.3113 15.487 89.3886 15.371 89.4853 15.371C89.6206 15.371 89.6883 15.5353 89.6883 15.864C89.6883 15.922 89.6786 15.9993 89.6593 16.096C89.6593 16.1733 89.6496 16.2603 89.6303 16.357C89.437 17.3043 89.1856 18.184 88.8763 18.996C88.567 19.7887 88.103 20.4267 87.4843 20.91C86.8656 21.3933 86.0053 21.635 84.9033 21.635Z" fill="#BD9F17"/>
<path d="M94.3389 21.345C93.7009 21.345 93.1983 21.142 92.8309 20.736C92.4636 20.3107 92.2026 19.7693 92.0479 19.112C91.9126 18.4353 91.8449 17.7103 91.8449 16.937C91.8449 16.1057 91.8933 15.2937 91.9899 14.501C92.1059 13.689 92.2219 12.9737 92.3379 12.355C92.4733 11.7363 92.5699 11.311 92.6279 11.079C92.0866 11.0403 91.6613 10.9533 91.3519 10.818C91.0426 10.6827 90.7816 10.5183 90.5689 10.325C90.4916 11.253 90.3659 12.2487 90.1919 13.312C90.0373 14.3753 89.8536 15.4 89.6409 16.386C89.4283 17.3527 89.1963 18.184 88.9449 18.88C88.8676 19.1313 88.7419 19.257 88.5679 19.257C88.4326 19.257 88.3649 19.17 88.3649 18.996C88.3649 18.9573 88.3649 18.909 88.3649 18.851C88.3843 18.793 88.4036 18.735 88.4229 18.677C88.7323 17.7877 88.9933 16.821 89.2059 15.777C89.4186 14.7137 89.5829 13.689 89.6989 12.703C89.8149 11.717 89.8729 10.8953 89.8729 10.238V9.91899C89.3896 9.70632 89.0319 9.39699 88.7999 8.99098C88.5873 8.58498 88.4809 8.19832 88.4809 7.83099C88.4809 7.56032 88.5293 7.31865 88.6259 7.10599C88.7419 6.89332 88.9063 6.78699 89.1189 6.78699H89.1769C89.4476 6.78699 89.6893 6.98032 89.9019 7.36699C90.1146 7.73432 90.2886 8.14999 90.4239 8.61399C90.5593 9.05865 90.6269 9.41632 90.6269 9.68699C90.8589 9.86099 91.1103 9.98665 91.3809 10.064C91.6709 10.1413 91.9126 10.18 92.1059 10.18C92.3573 10.18 92.5216 10.1413 92.5989 10.064C92.7536 9.90932 92.9373 9.68699 93.1499 9.39699C93.3819 9.10699 93.7396 8.96199 94.2229 8.96199C94.5516 8.96199 94.9479 9.05865 95.4119 9.25199C95.1799 9.73532 94.9673 10.2863 94.7739 10.905C94.5806 11.5043 94.4163 12.1423 94.2809 12.819C94.2616 12.9737 94.2133 13.283 94.1359 13.747C94.0586 14.211 93.9909 14.7427 93.9329 15.342C93.8749 15.9413 93.8459 16.5407 93.8459 17.14C93.8459 17.9907 93.9329 18.7447 94.1069 19.402C94.3003 20.04 94.6483 20.359 95.1509 20.359C95.4603 20.359 95.7309 20.2333 95.9629 19.982C96.1949 19.7307 96.3979 19.4213 96.5719 19.054C96.7459 18.6673 96.8909 18.3 97.0069 17.952C97.1229 17.5847 97.2099 17.2947 97.2679 17.082C97.3066 16.908 97.3839 16.821 97.4999 16.821C97.5966 16.821 97.6449 16.9273 97.6449 17.14V17.285C97.6449 18.1743 97.4806 18.9283 97.1519 19.547C96.8426 20.1463 96.4366 20.6007 95.9339 20.91C95.4313 21.2 94.8996 21.345 94.3389 21.345Z" fill="#BD9F17"/>
<path d="M101.911 21.751C100.964 21.751 100.152 21.5287 99.4751 21.084C98.8178 20.6393 98.3054 20.0497 97.9381 19.315C97.5901 18.561 97.3968 17.749 97.3581 16.879V16.299C97.3581 15.371 97.4548 14.443 97.6481 13.515C97.8608 12.587 98.1798 11.7363 98.6051 10.963C99.0304 10.1897 99.5718 9.57099 100.229 9.10699C100.886 8.62365 101.669 8.38199 102.578 8.38199H102.781C103.322 8.40132 103.709 8.60432 103.941 8.99098C104.192 9.37765 104.318 9.79332 104.318 10.238V10.354C104.318 11.398 104.076 12.3067 103.593 13.08C103.129 13.834 102.539 14.443 101.824 14.907C101.109 15.371 100.364 15.69 99.5911 15.864V16.009C99.5911 16.4923 99.6298 17.0143 99.7071 17.575C99.7844 18.1163 99.9294 18.6383 100.142 19.141C100.355 19.6437 100.654 20.0593 101.041 20.388C101.428 20.6973 101.921 20.852 102.52 20.852C103.255 20.852 103.873 20.62 104.376 20.156C104.879 19.692 105.265 19.141 105.536 18.503C105.652 18.2323 105.749 17.9327 105.826 17.604C105.923 17.256 106.01 16.8887 106.087 16.502C106.126 16.27 106.203 16.154 106.319 16.154C106.474 16.154 106.551 16.3183 106.551 16.647C106.551 16.705 106.541 16.7727 106.522 16.85C106.522 16.908 106.512 16.9853 106.493 17.082C106.377 17.7587 106.213 18.358 106 18.88C105.613 19.8853 105.101 20.62 104.463 21.084C103.844 21.5287 102.994 21.751 101.911 21.751ZM99.6201 15.226C100.219 15.052 100.741 14.7427 101.186 14.298C101.65 13.834 102.017 13.2927 102.288 12.674C102.559 12.0553 102.704 11.427 102.723 10.789V10.615C102.723 10.2863 102.665 9.96732 102.549 9.65798C102.433 9.34865 102.24 9.19398 101.969 9.19398H101.94C101.592 9.19398 101.283 9.36799 101.012 9.71599C100.761 10.0447 100.548 10.47 100.374 10.992C100.2 11.514 100.055 12.0553 99.9391 12.616C99.8231 13.1767 99.7361 13.689 99.6781 14.153C99.6394 14.617 99.6201 14.9553 99.6201 15.168V15.226Z" fill="#BD9F17"/>
<path d="M108.691 21.345C108.111 21.345 107.637 21.1613 107.27 20.794C106.922 20.4267 106.651 19.9627 106.458 19.402C106.264 18.8413 106.129 18.2613 106.052 17.662C105.994 17.0627 105.965 16.531 105.965 16.067V15.632C105.984 15.4 106.003 14.965 106.023 14.327C106.042 13.689 106.071 12.9447 106.11 12.094C106.148 11.224 106.206 10.3443 106.284 9.45498H105.385C105.23 9.45498 105.153 9.35832 105.153 9.16499C105.153 9.06832 105.191 8.97165 105.269 8.87499C105.327 8.75899 105.404 8.70098 105.501 8.70098H106.342C106.419 7.79232 106.506 6.97065 106.603 6.23599C106.699 5.50132 106.815 4.97932 106.951 4.66998C107.047 4.45732 107.221 4.27365 107.473 4.11898C107.724 3.94498 108.062 3.85798 108.488 3.85798C108.604 3.85798 108.729 3.86765 108.865 3.88699C109.019 3.90632 109.164 3.93532 109.3 3.97398C109.203 4.30265 109.087 4.90199 108.952 5.77199C108.836 6.62265 108.729 7.59898 108.633 8.70098H110.953C111.127 8.70098 111.214 8.80732 111.214 9.01999C111.214 9.11665 111.185 9.21332 111.127 9.30999C111.069 9.40665 110.982 9.45498 110.866 9.45498H108.546C108.449 10.5183 108.372 11.6203 108.314 12.761C108.256 13.8823 108.217 14.9167 108.198 15.864V16.531C108.198 17.0337 108.217 17.5847 108.256 18.184C108.294 18.7833 108.391 19.2957 108.546 19.721C108.7 20.1463 108.932 20.359 109.242 20.359H109.271C109.425 20.359 109.59 20.2817 109.764 20.127C109.957 19.9723 110.16 19.6823 110.373 19.257C110.527 18.9863 110.663 18.6673 110.779 18.3C110.914 17.9133 111.049 17.5073 111.185 17.082C111.262 16.908 111.339 16.821 111.417 16.821C111.513 16.821 111.562 16.937 111.562 17.169V17.285C111.523 17.7877 111.388 18.358 111.156 18.996C110.924 19.634 110.595 20.185 110.17 20.649C109.764 21.113 109.271 21.345 108.691 21.345Z" fill="#BD9F17"/>
<path d="M10.4112 22.073C9.17388 22.073 8.09121 21.8313 7.16321 21.348C6.25454 20.8647 5.49088 20.2073 4.87221 19.376C4.27288 18.5253 3.81854 17.5587 3.50921 16.476C3.19988 15.3933 3.04521 14.2623 3.04521 13.083C2.19454 12.7737 1.48888 12.329 0.928211 11.749C0.386878 11.1497 0.116211 10.4053 0.116211 9.51599C0.116211 9.03265 0.222544 8.62665 0.435211 8.29799C0.667211 7.96932 0.928211 7.69865 1.21821 7.48599C1.52754 7.27332 1.80788 7.12832 2.05921 7.05098C2.07854 7.05098 2.09788 7.05098 2.11721 7.05098C2.13654 7.03165 2.15588 7.02199 2.17521 7.02199C2.31054 7.02199 2.37821 7.09932 2.37821 7.25398C2.37821 7.36999 2.31054 7.45699 2.17521 7.51499C1.94321 7.61165 1.72088 7.84365 1.50821 8.21099C1.31488 8.57832 1.21821 8.94565 1.21821 9.31299C1.21821 9.89299 1.39221 10.4053 1.74021 10.85C2.10754 11.2753 2.55221 11.6427 3.07421 11.952C3.17088 10.56 3.46088 9.18732 3.94421 7.83399C4.44688 6.48065 5.13321 5.26265 6.00321 4.17998C6.87321 3.07799 7.92688 2.20799 9.16421 1.56999C10.4209 0.912651 11.8515 0.583984 13.4562 0.583984C15.3122 0.583984 16.6849 1.01898 17.5742 1.88898C18.4635 2.75899 18.9082 3.83199 18.9082 5.10799C18.9082 6.01665 18.7632 6.84798 18.4732 7.60199C19.0532 8.81999 19.3432 10.2217 19.3432 11.807C19.3432 13.025 19.1595 14.243 18.7922 15.461C18.4249 16.6597 17.8642 17.7617 17.1102 18.767C16.3755 19.753 15.4475 20.5457 14.3262 21.145C13.2049 21.7637 11.8999 22.073 10.4112 22.073ZM6.96021 12.996C7.86888 12.996 8.81621 12.8897 9.80221 12.677C10.8075 12.4643 11.7742 12.1357 12.7022 11.691C13.6495 11.2463 14.4905 10.6953 15.2252 10.038C15.9599 9.36132 16.5302 8.55899 16.9362 7.63099C16.5882 6.89632 16.0952 6.26799 15.4572 5.74599C14.8385 5.22399 14.0555 4.86632 13.1082 4.67299C13.0309 4.65365 12.9922 4.61499 12.9922 4.55699C12.9922 4.42165 13.0985 4.35399 13.3112 4.35399H13.6012C14.3939 4.35399 15.1092 4.49899 15.7472 4.78899C16.3852 5.07899 16.9362 5.47532 17.4002 5.97799C17.4582 5.62999 17.4872 5.27232 17.4872 4.90499C17.4872 4.01565 17.2649 3.30999 16.8202 2.78799C16.3949 2.24665 15.8729 1.85999 15.2542 1.62798C14.6355 1.37665 14.0652 1.25098 13.5432 1.25098C12.3445 1.25098 11.2619 1.58932 10.2952 2.26599C9.32854 2.94265 8.49721 3.84165 7.80121 4.96299C7.10521 6.08432 6.55421 7.33132 6.14821 8.70399C5.74221 10.0573 5.49088 11.4203 5.39421 12.793C5.68421 12.8703 5.96454 12.9283 6.23521 12.967C6.52521 12.9863 6.76688 12.996 6.96021 12.996ZM10.3242 21.406C11.3682 21.406 12.3349 21.0967 13.2242 20.478C14.1135 19.8593 14.8869 19.0473 15.5442 18.042C16.2209 17.0367 16.7429 15.9347 17.1102 14.736C17.4775 13.518 17.6612 12.3193 17.6612 11.14C17.6612 10.8307 17.6419 10.531 17.6032 10.241C17.5839 9.95099 17.5549 9.67065 17.5162 9.39999C16.7429 10.4247 15.7569 11.256 14.5582 11.894C13.3595 12.532 12.0932 12.996 10.7592 13.286C9.44454 13.576 8.20721 13.721 7.04721 13.721C6.48654 13.721 5.92588 13.692 5.36521 13.634V13.895C5.36521 15.229 5.53921 16.4663 5.88721 17.607C6.23521 18.7477 6.77654 19.666 7.51121 20.362C8.24588 21.058 9.18354 21.406 10.3242 21.406Z" fill="#FFD100"/>
<path d="M20.5884 30.976C19.9117 30.976 19.4381 30.6473 19.1674 29.99C18.8774 29.3327 18.7324 28.5207 18.7324 27.554C18.7324 27.148 18.7517 26.713 18.7904 26.249C18.8291 25.8043 18.8871 25.3597 18.9644 24.915C19.0611 24.2963 19.1964 23.6873 19.3704 23.088C19.5444 22.4887 19.7281 21.9183 19.9214 21.377C20.1921 20.6037 20.4917 19.8787 20.8204 19.202C21.1684 18.506 21.3424 17.7423 21.3424 16.911V16.795C21.3424 15.6543 21.2941 14.591 21.1974 13.605C21.1201 12.619 21.0137 11.7683 20.8784 11.053C20.7624 10.3377 20.6464 9.81565 20.5304 9.48699C20.9171 9.37098 21.2457 9.23565 21.5164 9.08099C21.7871 8.92632 22.0384 8.83932 22.2704 8.81999H22.4154C22.7827 8.81999 23.0147 9.01332 23.1114 9.39999C23.2081 9.76732 23.2661 10.212 23.2854 10.734C23.3047 11.082 23.3144 11.5363 23.3144 12.097C23.3144 12.6577 23.3241 13.2763 23.3434 13.953C23.6141 12.9863 23.9331 12.0487 24.3004 11.14C24.6677 10.2313 25.0737 9.48699 25.5184 8.90699C25.9631 8.30765 26.4174 8.00799 26.8814 8.00799C27.4614 8.00799 27.9061 8.21099 28.2154 8.61699C28.5441 9.02299 28.7761 9.53532 28.9114 10.154C29.0661 10.7533 29.1531 11.3623 29.1724 11.981C29.2111 12.5803 29.2304 13.083 29.2304 13.489C29.2304 14.4943 29.0951 15.548 28.8244 16.65C28.5731 17.752 28.1574 18.6897 27.5774 19.463H27.7804C28.4764 19.463 29.1627 19.144 29.8394 18.506C30.5354 17.8487 31.1251 16.8627 31.6084 15.548C31.6857 15.3547 31.7727 15.258 31.8694 15.258C32.0047 15.258 32.0724 15.3643 32.0724 15.577C32.0724 15.6543 32.0627 15.7123 32.0434 15.751C31.5214 17.259 30.8737 18.3513 30.1004 19.028C29.3464 19.7047 28.6021 20.043 27.8674 20.043C27.7514 20.043 27.6354 20.0333 27.5194 20.014C27.4034 19.9753 27.2874 19.9463 27.1714 19.927C26.8621 20.2557 26.5044 20.5167 26.0984 20.71C25.6924 20.9033 25.2381 21 24.7354 21C24.1747 21 23.7494 20.884 23.4594 20.652V21.928C23.4594 22.5273 23.4594 23.0687 23.4594 23.552C23.4594 24.0547 23.4497 24.4607 23.4304 24.77C23.3724 25.988 23.2661 26.9837 23.1114 27.757C22.9181 28.7043 22.6281 29.4777 22.2414 30.077C21.8547 30.6763 21.3327 30.976 20.6754 30.976H20.5884ZM24.3004 20.217C24.6097 20.217 24.8901 20.1203 25.1414 19.927C25.5861 19.579 25.9437 19.0183 26.2144 18.245C26.5044 17.4523 26.7074 16.6693 26.8234 15.896C26.8814 15.5673 26.9201 15.171 26.9394 14.707C26.9781 14.243 26.9974 13.7693 26.9974 13.286C26.9974 12.4547 26.9297 11.7103 26.7944 11.053C26.6591 10.3763 26.3981 10.038 26.0114 10.038C25.7794 10.038 25.5377 10.241 25.2864 10.647C25.0544 11.053 24.8224 11.5847 24.5904 12.242C24.3584 12.8993 24.1361 13.605 23.9234 14.359C23.7301 15.0937 23.5561 15.7993 23.4014 16.476C23.4207 17.0367 23.4304 17.5973 23.4304 18.158C23.4304 18.7187 23.4304 19.2793 23.4304 19.84C23.6817 20.0913 23.9717 20.217 24.3004 20.217ZM20.4724 30.048C20.5884 30.048 20.7044 29.961 20.8204 29.787C20.9557 29.6323 21.0717 29.3713 21.1684 29.004C21.3037 28.5013 21.3907 27.8537 21.4294 27.061C21.4874 26.2683 21.5164 25.437 21.5164 24.567C21.5164 23.6197 21.4971 22.6917 21.4584 21.783C21.4197 20.8937 21.3811 20.1493 21.3424 19.55C21.1684 19.956 20.9751 20.4393 20.7624 21C20.5497 21.5607 20.3661 22.1503 20.2114 22.769C20.0181 23.465 19.8634 24.1707 19.7474 24.886C19.6121 25.6207 19.5444 26.3553 19.5444 27.09C19.5444 27.7087 19.6024 28.3273 19.7184 28.946C19.7764 29.2167 19.8827 29.468 20.0374 29.7C20.1727 29.932 20.3177 30.048 20.4724 30.048Z" fill="#FFD100"/>
<path d="M35.6679 21.551C34.7206 21.551 33.9086 21.3287 33.2319 20.884C32.5746 20.4393 32.0623 19.8497 31.6949 19.115C31.3469 18.361 31.1536 17.549 31.1149 16.679V16.099C31.1149 15.171 31.2116 14.243 31.4049 13.315C31.6176 12.387 31.9366 11.5363 32.3619 10.763C32.7873 9.98965 33.3286 9.37099 33.9859 8.90699C34.6433 8.42365 35.4263 8.18198 36.3349 8.18198H36.5379C37.0793 8.20132 37.4659 8.40432 37.6979 8.79099C37.9493 9.17765 38.0749 9.59332 38.0749 10.038V10.154C38.0749 11.198 37.8333 12.1067 37.3499 12.88C36.8859 13.634 36.2963 14.243 35.5809 14.707C34.8656 15.171 34.1213 15.49 33.3479 15.664V15.809C33.3479 16.2923 33.3866 16.8143 33.4639 17.375C33.5413 17.9163 33.6863 18.4383 33.8989 18.941C34.1116 19.4437 34.4113 19.8593 34.7979 20.188C35.1846 20.4973 35.6776 20.652 36.2769 20.652C37.0116 20.652 37.6303 20.42 38.1329 19.956C38.6356 19.492 39.0223 18.941 39.2929 18.303C39.4089 18.0323 39.5056 17.7327 39.5829 17.404C39.6796 17.056 39.7666 16.6887 39.8439 16.302C39.8826 16.07 39.9599 15.954 40.0759 15.954C40.2306 15.954 40.3079 16.1183 40.3079 16.447C40.3079 16.505 40.2983 16.5727 40.2789 16.65C40.2789 16.708 40.2693 16.7853 40.2499 16.882C40.1339 17.5587 39.9696 18.158 39.7569 18.68C39.3703 19.6853 38.8579 20.42 38.2199 20.884C37.6013 21.3287 36.7506 21.551 35.6679 21.551ZM33.3769 15.026C33.9763 14.852 34.4983 14.5427 34.9429 14.098C35.4069 13.634 35.7743 13.0927 36.0449 12.474C36.3156 11.8553 36.4606 11.227 36.4799 10.589V10.415C36.4799 10.0863 36.4219 9.76732 36.3059 9.45798C36.1899 9.14865 35.9966 8.99399 35.7259 8.99399H35.6969C35.3489 8.99399 35.0396 9.16799 34.7689 9.51599C34.5176 9.84465 34.3049 10.27 34.1309 10.792C33.9569 11.314 33.8119 11.8553 33.6959 12.416C33.5799 12.9767 33.4929 13.489 33.4349 13.953C33.3963 14.417 33.3769 14.7553 33.3769 14.968V15.026Z" fill="#FFD100"/>
<path d="M40.5916 21.232C40.3209 21.232 40.0889 21.1353 39.8956 20.942C39.7216 20.7293 39.6346 20.3813 39.6346 19.898C39.6346 19.8207 39.6346 19.7433 39.6346 19.666C39.6346 19.5693 39.6443 19.4727 39.6636 19.376C39.7023 19.028 39.7409 18.5447 39.7796 17.926C39.8376 17.3073 39.8763 16.6113 39.8956 15.838C39.9343 15.0647 39.9536 14.2913 39.9536 13.518C39.9536 12.706 39.9246 11.9423 39.8666 11.227C39.8279 10.4923 39.7506 9.91232 39.6346 9.48699C39.7893 9.44832 39.9923 9.34199 40.2436 9.16798C40.4949 8.99398 40.7559 8.87799 41.0266 8.81999C41.0846 8.80065 41.1619 8.79099 41.2586 8.79099C41.5873 8.79099 41.7903 8.96499 41.8676 9.31299C41.9643 9.66099 42.0126 10.0863 42.0126 10.589C42.0126 10.937 42.0029 11.3527 41.9836 11.836C41.9836 12.3 41.9643 12.706 41.9256 13.054C42.1383 12.4353 42.3703 11.9037 42.6216 11.459C42.8729 10.995 43.1436 10.5503 43.4336 10.125C43.7236 9.68032 44.0329 9.24532 44.3616 8.81999C44.6903 8.37532 45.1349 8.15299 45.6956 8.15299C46.2756 8.15299 46.6526 8.34632 46.8266 8.73299C47.0006 9.11965 47.0876 9.54499 47.0876 10.009C47.0876 10.2603 47.0779 10.502 47.0586 10.734C47.0393 10.9467 47.0199 11.1497 47.0006 11.343C47.0006 11.4783 46.9716 11.836 46.9136 12.416C46.8556 12.9767 46.7976 13.6437 46.7396 14.417C46.6816 15.171 46.6526 15.9347 46.6526 16.708C46.6526 16.9207 46.6623 17.2203 46.6816 17.607C46.7009 17.9743 46.7396 18.3513 46.7976 18.738C46.8556 19.1053 46.9523 19.4243 47.0876 19.695C47.2423 19.9463 47.4453 20.072 47.6966 20.072C47.8513 20.072 48.0253 20.014 48.2186 19.898C48.4313 19.7433 48.6149 19.5403 48.7696 19.289C48.9436 19.0377 49.0789 18.7863 49.1756 18.535C49.2529 18.361 49.3303 18.1677 49.4076 17.955C49.4849 17.7423 49.5526 17.52 49.6106 17.288C49.6879 17.056 49.7943 16.94 49.9296 16.94C50.0263 16.94 50.0746 17.0367 50.0746 17.23V17.346C50.0746 17.4813 50.0456 17.6553 49.9876 17.868C49.9489 18.0807 49.8909 18.2933 49.8136 18.506C49.5816 19.2213 49.2336 19.8497 48.7696 20.391C48.3249 20.913 47.6966 21.174 46.8846 21.174C46.3433 21.174 45.9179 20.971 45.6086 20.565C45.3186 20.1397 45.1059 19.5983 44.9706 18.941C44.8933 18.5737 44.8353 18.2063 44.7966 17.839C44.7773 17.4717 44.7676 17.1043 44.7676 16.737C44.7676 15.8283 44.8256 14.9293 44.9416 14.04C45.0769 13.1313 45.1446 12.2613 45.1446 11.43C45.1446 11.1593 45.1059 10.908 45.0286 10.676C44.9706 10.4247 44.8256 10.299 44.5936 10.299C44.3616 10.299 44.0813 10.5213 43.7526 10.966C43.4239 11.3913 43.0856 12.0197 42.7376 12.851C42.3896 13.663 42.0996 14.591 41.8676 15.635C41.6356 16.6597 41.5196 17.7133 41.5196 18.796C41.5196 19.4533 41.5776 20.1203 41.6936 20.797C41.5583 20.8937 41.3843 20.9903 41.1716 21.087C40.9589 21.1837 40.7656 21.232 40.5916 21.232Z" fill="#FFD100"/>
<path d="M61.3021 22.16C60.9735 22.16 60.6545 22.1503 60.3451 22.131C60.0551 22.1117 59.7748 22.0827 59.5041 22.044C57.9575 21.7927 56.8458 21.3963 56.1691 20.855C55.4925 20.3137 55.1541 19.7143 55.1541 19.057C55.1541 18.477 55.3765 17.897 55.8211 17.317C56.2851 16.7177 56.9038 16.1763 57.6771 15.693C58.4698 15.1903 59.3785 14.794 60.4031 14.504C61.4278 14.1947 62.5201 14.04 63.6801 14.04C63.9895 14.04 64.3471 14.069 64.7531 14.127C65.1591 14.1657 65.4201 14.214 65.5361 14.272C65.6521 14.33 65.7101 14.4073 65.7101 14.504C65.7101 14.6393 65.5941 14.707 65.3621 14.707H65.1881C64.9948 14.707 64.7918 14.6973 64.5791 14.678C64.3665 14.6393 64.1538 14.62 63.9411 14.62C63.0131 14.62 62.1335 14.7553 61.3021 15.026C60.4708 15.2967 59.7361 15.6447 59.0981 16.07C58.4601 16.4953 57.9575 16.969 57.5901 17.491C57.2228 17.9937 57.0391 18.4867 57.0391 18.97C57.0391 19.5113 57.2808 19.9947 57.7641 20.42C58.2668 20.8453 59.0788 21.145 60.2001 21.319C60.4128 21.3383 60.6351 21.3577 60.8671 21.377C61.0991 21.4157 61.3215 21.435 61.5341 21.435C62.5975 21.435 63.6125 21.261 64.5791 20.913C65.5458 20.565 66.4061 20.1107 67.1601 19.55C67.9335 18.97 68.5425 18.3417 68.9871 17.665C69.4318 16.9883 69.6541 16.331 69.6541 15.693C69.6541 15.229 69.5188 14.794 69.2481 14.388C68.9968 13.982 68.5715 13.6243 67.9721 13.315C67.2761 12.967 66.5221 12.677 65.7101 12.445C64.9175 12.1937 64.1151 11.952 63.3031 11.72C62.4911 11.488 61.7178 11.227 60.9831 10.937C60.2485 10.647 59.6008 10.27 59.0401 9.80599C58.6341 9.47732 58.3345 9.10032 58.1411 8.67499C57.9671 8.24965 57.8801 7.80499 57.8801 7.34099C57.8801 6.78032 58.0058 6.22932 58.2571 5.68799C58.5085 5.12732 58.8468 4.61499 59.2721 4.15099C59.9488 3.43565 60.7415 2.85565 61.6501 2.41098C62.5588 1.94699 63.5158 1.59899 64.5211 1.36698C65.5265 1.13499 66.5028 1.01899 67.4501 1.01899H67.5661C69.4028 1.01899 70.7368 1.30899 71.5681 1.88898C72.4188 2.44965 72.8441 3.09732 72.8441 3.83199C72.8441 4.41199 72.5928 4.99199 72.0901 5.57199C71.5875 6.13265 70.8818 6.60632 69.9731 6.99299C69.0645 7.36032 67.9818 7.54399 66.7251 7.54399H66.6091C66.4931 7.54399 66.3868 7.49565 66.2901 7.39899C66.2128 7.28299 66.1741 7.18632 66.1741 7.10898C66.1741 7.01232 66.2225 6.96399 66.3191 6.96399C67.1698 6.96399 67.9721 6.77065 68.7261 6.38399C69.4995 5.99732 70.1181 5.52365 70.5821 4.96299C71.0655 4.38299 71.3071 3.83199 71.3071 3.30999C71.3071 2.86532 71.0751 2.47865 70.6111 2.14998C70.1665 1.80198 69.4028 1.62798 68.3201 1.62798H68.2331C67.3051 1.62798 66.3578 1.78265 65.3911 2.09199C64.4438 2.40132 63.5641 2.80732 62.7521 3.30999C61.9401 3.81265 61.2828 4.37332 60.7801 4.99198C60.2775 5.59132 60.0261 6.20032 60.0261 6.81899C60.0261 7.18632 60.1325 7.54399 60.3451 7.89199C60.5578 8.23999 60.9058 8.55898 61.3891 8.84898C62.0078 9.23565 62.7618 9.55465 63.6511 9.80599C64.5598 10.0573 65.4975 10.3183 66.4641 10.589C67.4501 10.8403 68.3685 11.1497 69.2191 11.517C70.0698 11.8843 70.7561 12.3677 71.2781 12.967C71.8195 13.547 72.0901 14.301 72.0901 15.229C72.0901 15.4223 72.0805 15.6253 72.0611 15.838C72.0418 16.0507 72.0031 16.2633 71.9451 16.476C71.6938 17.5007 71.1911 18.3803 70.4371 19.115C69.6831 19.8303 68.7841 20.4103 67.7401 20.855C66.6961 21.2997 65.6038 21.6283 64.4631 21.841C63.3418 22.0537 62.2881 22.16 61.3021 22.16Z" fill="#FFD100"/>
<path d="M77.0269 21.551C76.0989 21.551 75.3449 21.2707 74.7649 20.71C74.2043 20.13 73.7886 19.4243 73.5179 18.593C73.2666 17.7423 73.1409 16.911 73.1409 16.099C73.1409 15.171 73.2376 14.243 73.4309 13.315C73.6243 12.3677 73.9239 11.5073 74.3299 10.734C74.7553 9.96065 75.2869 9.34199 75.9249 8.87799C76.5629 8.39465 77.3169 8.15299 78.1869 8.15299C78.8056 8.15299 79.2889 8.33665 79.6369 8.70399C79.9849 9.07132 80.1589 9.61265 80.1589 10.328C80.1589 11.2947 79.9173 12.155 79.4339 12.909C78.9699 13.6437 78.3803 14.243 77.6649 14.707C76.9496 15.171 76.2053 15.49 75.4319 15.664V15.809C75.4319 16.6017 75.5093 17.346 75.6639 18.042C75.8379 18.7187 76.1086 19.2697 76.4759 19.695C76.8626 20.101 77.3653 20.304 77.9839 20.304C78.7379 20.304 79.3179 19.9947 79.7239 19.376C80.1299 18.738 80.4489 17.9357 80.6809 16.969C80.7003 16.8917 80.7293 16.824 80.7679 16.766C80.8259 16.6887 80.8743 16.65 80.9129 16.65C81.0869 16.65 81.1643 16.7757 81.1449 17.027C81.0869 17.549 80.9709 18.042 80.7969 18.506C80.6229 18.97 80.4393 19.3663 80.2459 19.695C79.8786 20.2943 79.4339 20.7487 78.9119 21.058C78.4093 21.3867 77.7809 21.551 77.0269 21.551ZM75.4609 14.997C76.0796 14.8423 76.6209 14.5427 77.0849 14.098C77.5489 13.634 77.9066 13.0927 78.1579 12.474C78.4286 11.8553 78.5639 11.227 78.5639 10.589V10.444C78.5639 10.096 78.5059 9.76732 78.3899 9.45798C78.2933 9.14865 78.0999 8.99399 77.8099 8.99399C77.4619 8.99399 77.1526 9.16799 76.8819 9.51599C76.6306 9.84465 76.4083 10.27 76.2149 10.792C76.0409 11.314 75.8959 11.8553 75.7799 12.416C75.6639 12.9767 75.5769 13.489 75.5189 13.953C75.4803 14.417 75.4609 14.7553 75.4609 14.968V14.997Z" fill="#FFD100"/>
<path d="M84.7031 21.435C83.8138 21.435 83.0888 21.232 82.5281 20.826C81.9674 20.4007 81.5421 19.8593 81.2521 19.202C80.9814 18.5253 80.8171 17.8003 80.7591 17.027C80.7398 16.8723 80.7301 16.7273 80.7301 16.592C80.7301 16.4373 80.7301 16.2827 80.7301 16.128C80.7301 15.3353 80.8074 14.4943 80.9621 13.605C81.1361 12.6963 81.4164 11.8457 81.8031 11.053C82.1898 10.2603 82.6924 9.61265 83.3111 9.10999C83.9491 8.60732 84.7321 8.35599 85.6601 8.35599C86.2401 8.35599 86.7041 8.57832 87.0521 9.02299C87.4194 9.44832 87.6031 9.94132 87.6031 10.502C87.6031 11.1013 87.5064 11.546 87.3131 11.836C87.1198 12.1067 86.8878 12.242 86.6171 12.242C86.1531 12.242 85.9211 11.749 85.9211 10.763C85.9211 10.3763 85.8631 10.0187 85.7471 9.68999C85.6311 9.36132 85.4088 9.19699 85.0801 9.19699C84.7128 9.19699 84.4034 9.38065 84.1521 9.74799C83.9201 10.096 83.7268 10.5503 83.5721 11.111C83.4174 11.6523 83.2918 12.2323 83.1951 12.851C83.1178 13.4503 83.0598 14.0207 83.0211 14.562C83.0018 15.084 82.9921 15.49 82.9921 15.78V15.896C82.9921 16.6887 83.0598 17.433 83.1951 18.129C83.3304 18.825 83.5818 19.3857 83.9491 19.811C84.3164 20.2363 84.8288 20.449 85.4861 20.449C86.1241 20.449 86.6558 20.275 87.0811 19.927C87.5064 19.5597 87.8448 19.115 88.0961 18.593C88.3668 18.0517 88.5698 17.5007 88.7051 16.94C88.8598 16.3793 88.9758 15.9057 89.0531 15.519C89.1111 15.287 89.1884 15.171 89.2851 15.171C89.4204 15.171 89.4881 15.3353 89.4881 15.664C89.4881 15.722 89.4784 15.7993 89.4591 15.896C89.4591 15.9733 89.4494 16.0603 89.4301 16.157C89.2368 17.1043 88.9854 17.984 88.6761 18.796C88.3668 19.5887 87.9028 20.2267 87.2841 20.71C86.6654 21.1933 85.8051 21.435 84.7031 21.435Z" fill="#FFD100"/>
<path d="M94.1387 21.145C93.5007 21.145 92.9981 20.942 92.6307 20.536C92.2634 20.1107 92.0024 19.5693 91.8477 18.912C91.7124 18.2353 91.6447 17.5103 91.6447 16.737C91.6447 15.9057 91.6931 15.0937 91.7897 14.301C91.9057 13.489 92.0217 12.7737 92.1377 12.155C92.2731 11.5363 92.3697 11.111 92.4277 10.879C91.8864 10.8403 91.4611 10.7533 91.1517 10.618C90.8424 10.4827 90.5814 10.3183 90.3687 10.125C90.2914 11.053 90.1657 12.0487 89.9917 13.112C89.8371 14.1753 89.6534 15.2 89.4407 16.186C89.2281 17.1527 88.9961 17.984 88.7447 18.68C88.6674 18.9313 88.5417 19.057 88.3677 19.057C88.2324 19.057 88.1647 18.97 88.1647 18.796C88.1647 18.7573 88.1647 18.709 88.1647 18.651C88.1841 18.593 88.2034 18.535 88.2227 18.477C88.5321 17.5877 88.7931 16.621 89.0057 15.577C89.2184 14.5137 89.3827 13.489 89.4987 12.503C89.6147 11.517 89.6727 10.6953 89.6727 10.038V9.71899C89.1894 9.50632 88.8317 9.19699 88.5997 8.79099C88.3871 8.38499 88.2807 7.99832 88.2807 7.63099C88.2807 7.36032 88.3291 7.11865 88.4257 6.90598C88.5417 6.69332 88.7061 6.58699 88.9187 6.58699H88.9767C89.2474 6.58699 89.4891 6.78032 89.7017 7.16699C89.9144 7.53432 90.0884 7.94999 90.2237 8.41399C90.3591 8.85865 90.4267 9.21632 90.4267 9.48699C90.6587 9.66099 90.9101 9.78665 91.1807 9.86399C91.4707 9.94132 91.7124 9.97999 91.9057 9.97999C92.1571 9.97999 92.3214 9.94132 92.3987 9.86399C92.5534 9.70932 92.7371 9.48699 92.9497 9.19699C93.1817 8.90699 93.5394 8.76199 94.0227 8.76199C94.3514 8.76199 94.7477 8.85865 95.2117 9.05198C94.9797 9.53532 94.7671 10.0863 94.5737 10.705C94.3804 11.3043 94.2161 11.9423 94.0807 12.619C94.0614 12.7737 94.0131 13.083 93.9357 13.547C93.8584 14.011 93.7907 14.5427 93.7327 15.142C93.6747 15.7413 93.6457 16.3407 93.6457 16.94C93.6457 17.7907 93.7327 18.5447 93.9067 19.202C94.1001 19.84 94.4481 20.159 94.9507 20.159C95.2601 20.159 95.5307 20.0333 95.7627 19.782C95.9947 19.5307 96.1977 19.2213 96.3717 18.854C96.5457 18.4673 96.6907 18.1 96.8067 17.752C96.9227 17.3847 97.0097 17.0947 97.0677 16.882C97.1064 16.708 97.1837 16.621 97.2997 16.621C97.3964 16.621 97.4447 16.7273 97.4447 16.94V17.085C97.4447 17.9743 97.2804 18.7283 96.9517 19.347C96.6424 19.9463 96.2364 20.4007 95.7337 20.71C95.2311 21 94.6994 21.145 94.1387 21.145Z" fill="#FFD100"/>
<path d="M101.711 21.551C100.764 21.551 99.9516 21.3287 99.2749 20.884C98.6176 20.4393 98.1052 19.8497 97.7379 19.115C97.3899 18.361 97.1966 17.549 97.1579 16.679V16.099C97.1579 15.171 97.2546 14.243 97.4479 13.315C97.6606 12.387 97.9796 11.5363 98.4049 10.763C98.8302 9.98965 99.3716 9.37099 100.029 8.90699C100.686 8.42365 101.469 8.18198 102.378 8.18198H102.581C103.122 8.20132 103.509 8.40432 103.741 8.79099C103.992 9.17765 104.118 9.59332 104.118 10.038V10.154C104.118 11.198 103.876 12.1067 103.393 12.88C102.929 13.634 102.339 14.243 101.624 14.707C100.909 15.171 100.164 15.49 99.3909 15.664V15.809C99.3909 16.2923 99.4296 16.8143 99.5069 17.375C99.5842 17.9163 99.7293 18.4383 99.9419 18.941C100.155 19.4437 100.454 19.8593 100.841 20.188C101.228 20.4973 101.721 20.652 102.32 20.652C103.055 20.652 103.673 20.42 104.176 19.956C104.679 19.492 105.065 18.941 105.336 18.303C105.452 18.0323 105.549 17.7327 105.626 17.404C105.723 17.056 105.81 16.6887 105.887 16.302C105.926 16.07 106.003 15.954 106.119 15.954C106.274 15.954 106.351 16.1183 106.351 16.447C106.351 16.505 106.341 16.5727 106.322 16.65C106.322 16.708 106.312 16.7853 106.293 16.882C106.177 17.5587 106.013 18.158 105.8 18.68C105.413 19.6853 104.901 20.42 104.263 20.884C103.644 21.3287 102.794 21.551 101.711 21.551ZM99.4199 15.026C100.019 14.852 100.541 14.5427 100.986 14.098C101.45 13.634 101.817 13.0927 102.088 12.474C102.359 11.8553 102.504 11.227 102.523 10.589V10.415C102.523 10.0863 102.465 9.76732 102.349 9.45798C102.233 9.14865 102.04 8.99399 101.769 8.99399H101.74C101.392 8.99399 101.083 9.16799 100.812 9.51599C100.561 9.84465 100.348 10.27 100.174 10.792C99.9999 11.314 99.8549 11.8553 99.7389 12.416C99.6229 12.9767 99.5359 13.489 99.4779 13.953C99.4392 14.417 99.4199 14.7553 99.4199 14.968V15.026Z" fill="#FFD100"/>
<path d="M108.491 21.145C107.911 21.145 107.437 20.9613 107.07 20.594C106.722 20.2267 106.451 19.7627 106.258 19.202C106.064 18.6413 105.929 18.0613 105.852 17.462C105.794 16.8627 105.765 16.331 105.765 15.867V15.432C105.784 15.2 105.803 14.765 105.823 14.127C105.842 13.489 105.871 12.7447 105.91 11.894C105.948 11.024 106.006 10.1443 106.084 9.25498H105.185C105.03 9.25498 104.953 9.15832 104.953 8.96498C104.953 8.86832 104.991 8.77165 105.069 8.67499C105.127 8.55899 105.204 8.50099 105.301 8.50099H106.142C106.219 7.59232 106.306 6.77065 106.403 6.03598C106.499 5.30132 106.615 4.77932 106.751 4.46998C106.847 4.25732 107.021 4.07365 107.273 3.91898C107.524 3.74498 107.862 3.65798 108.288 3.65798C108.404 3.65798 108.529 3.66765 108.665 3.68699C108.819 3.70632 108.964 3.73532 109.1 3.77398C109.003 4.10265 108.887 4.70199 108.752 5.57199C108.636 6.42265 108.529 7.39898 108.433 8.50099H110.753C110.927 8.50099 111.014 8.60732 111.014 8.81999C111.014 8.91665 110.985 9.01332 110.927 9.10999C110.869 9.20665 110.782 9.25498 110.666 9.25498H108.346C108.249 10.3183 108.172 11.4203 108.114 12.561C108.056 13.6823 108.017 14.7167 107.998 15.664V16.331C107.998 16.8337 108.017 17.3847 108.056 17.984C108.094 18.5833 108.191 19.0957 108.346 19.521C108.5 19.9463 108.732 20.159 109.042 20.159H109.071C109.225 20.159 109.39 20.0817 109.564 19.927C109.757 19.7723 109.96 19.4823 110.173 19.057C110.327 18.7863 110.463 18.4673 110.579 18.1C110.714 17.7133 110.849 17.3073 110.985 16.882C111.062 16.708 111.139 16.621 111.217 16.621C111.313 16.621 111.362 16.737 111.362 16.969V17.085C111.323 17.5877 111.188 18.158 110.956 18.796C110.724 19.434 110.395 19.985 109.97 20.449C109.564 20.913 109.071 21.145 108.491 21.145Z" fill="#FFD100"/>
</svg>
